<svg width="50" height="50" viewBox="0 0 50 50" fill="none" xmlns="http://www.w3.org/2000/svg">
<path fill-rule="evenodd" clip-rule="evenodd" d="M25 48C37.7025 48 48 37.7025 48 25C48 12.2975 37.7025 2 25 2C12.2975 2 2 12.2975 2 25C2 37.7025 12.2975 48 25 48ZM25 50C38.8071 50 50 38.8071 50 25C50 11.1929 38.8071 0 25 0C11.1929 0 0 11.1929 0 25C0 38.8071 11.1929 50 25 50Z" fill="#0041A4"/>
<path d="M34.9566 29.9194C34.434 29.2864 33.8402 28.7191 33.2659 28.1704C33.0618 27.9753 32.8506 27.7736 32.6471 27.573C32.0628 26.9965 32.0415 26.7799 32.5041 26.125C32.8242 25.6736 33.1636 25.2216 33.4917 24.7845C33.7894 24.3879 34.0973 23.9778 34.3923 23.5663L34.4529 23.4817C35.0168 22.6943 35.6 21.8801 35.9103 20.8979C35.9909 20.6388 36.0755 20.2575 35.882 19.9386C35.6887 19.62 35.3136 19.5228 35.0482 19.4774C34.9169 19.4549 34.7866 19.4519 34.6656 19.4519L30.9728 19.4492L30.9423 19.4489C30.3839 19.4489 30.0076 19.7145 29.792 20.2608C29.5862 20.7828 29.36 21.3386 29.102 21.8672C28.5885 22.9196 27.9363 24.1318 26.9927 25.1428L26.9528 25.1858C26.8413 25.3067 26.7151 25.4435 26.6228 25.4435C26.6087 25.4435 26.5933 25.4408 26.5758 25.4353C26.3804 25.3584 26.2492 24.8809 26.2551 24.6587C26.2552 24.6557 26.2552 24.6526 26.2552 24.6495L26.2527 20.3423C26.2527 20.3273 26.2516 20.3125 26.2497 20.2977C26.1557 19.5975 25.9477 19.1617 25.1614 19.0063C25.1405 19.0021 25.1192 19 25.0979 19H21.258C20.6325 19 20.2877 19.2566 19.9637 19.6407C19.8763 19.7433 19.6942 19.9571 19.7844 20.2163C19.876 20.4795 20.1732 20.5357 20.27 20.554C20.7504 20.6463 21.0212 20.9428 21.0979 21.4609C21.2318 22.3606 21.2482 23.321 21.1496 24.4831C21.1222 24.8061 21.0678 25.0556 20.9782 25.2687C20.9574 25.3185 20.8836 25.4808 20.8084 25.4809C20.7845 25.4809 20.7153 25.4714 20.5893 25.3838C20.2914 25.1779 20.0735 24.884 19.8194 24.521C18.9551 23.2883 18.2297 21.9303 17.6014 20.3685C17.3684 19.7936 16.9333 19.4717 16.3756 19.4623C15.7628 19.4529 15.2073 19.4483 14.6774 19.4483C14.0984 19.4483 13.5617 19.4537 13.0376 19.4647C12.5889 19.4727 12.2785 19.6085 12.1152 19.8685C11.9516 20.1287 11.9623 20.4705 12.1469 20.8842C13.6244 24.199 14.964 26.6092 16.4907 28.6993C17.5604 30.1618 18.6334 31.1742 19.867 31.8849C21.1667 32.6352 22.6232 33 24.3196 33C24.5119 33 24.7108 32.9953 24.9113 32.9858C25.897 32.9373 26.2628 32.5773 26.309 31.6087C26.331 31.1137 26.3846 30.5946 26.6258 30.1518C26.778 29.8729 26.9199 29.8729 26.9665 29.8729C27.0564 29.8729 27.1677 29.9146 27.2874 29.9928C27.5019 30.1342 27.6859 30.3235 27.8367 30.4889C27.9787 30.646 28.1191 30.8048 28.2596 30.9636C28.5628 31.3063 28.8763 31.6606 29.2039 31.9967C29.9208 32.7327 30.7105 33.0565 31.6176 32.9862H35.0034C35.0106 32.9862 35.0178 32.9859 35.025 32.9855C35.3624 32.963 35.6546 32.7741 35.8267 32.4673C36.0399 32.0873 36.0356 31.6024 35.8152 31.17C35.5651 30.6811 35.2408 30.2634 34.9566 29.9194Z" fill="#0041A4"/>
</svg>
