<svg width="80" height="69" viewBox="0 0 80 69" fill="none" xmlns="http://www.w3.org/2000/svg">
<path d="M17.9289 16.9472H30.1497V22.0738H17.9289V16.9472ZM17.9289 28.6049H30.1497V33.7316H17.9289V28.6049ZM17.9289 40.2625H30.1497V45.3892H17.9289V40.2625ZM17.9289 51.9203H30.1497V57.0469H17.9289V51.9203Z" fill="white"/>
<path d="M42.6427 63.8733V21.9837L69.4359 21.9524V50.2115H74.5641V19.3861C74.5641 17.9876 73.3947 16.8227 71.9969 16.8227L40.0756 16.8599C38.6607 16.8616 37.5145 18.0087 37.5145 19.4233V63.8733H10.5641V13.1488L37.5145 5.90496V11.7247H42.6427V2.56136C42.6427 0.902968 41.0169 -0.345181 39.4128 0.0858978L7.33419 8.708C6.78935 8.85461 6.30809 9.1766 5.96492 9.62411C5.62174 10.0716 5.43581 10.6197 5.4359 11.1835V63.8733H0V69H80V63.8733H42.6427Z" fill="white"/>
<path d="M69.4359 54.8256H74.5641V59.6011H69.4359V54.8256ZM49.8503 28.6049H62.0711V33.7316H49.8503V28.6049ZM49.8503 40.2625H62.0711V45.3892H49.8503V40.2625ZM49.8503 51.9203H62.0711V57.0469H49.8503V51.9203Z" fill="white"/>
</svg>
