<svg width="59" height="59" viewBox="0 0 59 59" fill="none" xmlns="http://www.w3.org/2000/svg">
<path fill-rule="evenodd" clip-rule="evenodd" d="M0.5 0.5H58.5V58.5H0.5V0.5ZM3.5 3.5V8.48755H18.3764V3.5H3.5ZM21.3764 3.5V8.48755H55.5V3.5H21.3764ZM55.5 11.4875H3.5V55.5H55.5V11.4875ZM7.34647 15.334H51.6535V40.3525H7.34647V15.334ZM10.3465 18.334V34.8329L12.5991 32.2349C12.5991 32.2349 12.5991 32.2349 12.5991 32.2349C14.2027 30.3855 16.1849 28.9023 18.4116 27.8858C20.6384 26.8693 23.0575 26.3433 25.5053 26.3433H33.8322C35.9372 26.3433 38.0154 25.8714 39.914 24.9623C41.8125 24.0532 43.4831 22.73 44.8029 21.0902L47.021 18.334H10.3465ZM48.6535 21.0904L47.1401 22.971C45.5391 24.9603 43.5126 26.5653 41.2096 27.6681C38.9066 28.7708 36.3856 29.3433 33.8322 29.3433H25.5053C23.4874 29.3433 21.4931 29.7769 19.6575 30.6149C17.8218 31.4529 16.1877 32.6756 14.8658 34.2002L12.1324 37.3525H48.6535V21.0904ZM44.1957 49.4309V52.1828H41.1957V49.4309H7.26209V46.4309H41.1957V43.6792H44.1957V46.4309H52.007V49.4309H44.1957Z" fill="url(#paint0_linear_145_45)"/>
<defs>
<linearGradient id="paint0_linear_145_45" x1="6.74615" y1="10.1667" x2="52.081" y2="47.8929" gradientUnits="userSpaceOnUse">
<stop stop-color="#37AF27"/>
<stop offset="1" stop-color="#10A2D0"/>
</linearGradient>
</defs>
</svg>
