<svg width="50" height="50" viewBox="0 0 50 50" fill="none" xmlns="http://www.w3.org/2000/svg">
<path fill-rule="evenodd" clip-rule="evenodd" d="M25.0501 13C28.2467 13.0013 31.2472 14.2398 33.5033 16.4877C35.7595 18.7356 37.0013 21.7236 37 24.9013C36.9973 31.4585 31.6362 36.7938 25.0502 36.7938H25.0453C23.0453 36.793 21.0802 36.2937 19.3348 35.3463L13 37L14.6953 30.8373C13.6496 29.0338 13.0993 26.9878 13.1002 24.8918C13.1028 18.3346 18.4635 13 25.0501 13ZM30.4986 27.3822C30.1999 27.2335 28.732 26.5146 28.4583 26.4154C28.1846 26.3162 27.9856 26.2667 27.7865 26.5642C27.5874 26.8616 27.0152 27.531 26.841 27.7293C26.6669 27.9276 26.4927 27.9524 26.1941 27.8036C26.1453 27.7793 26.0788 27.7506 25.9967 27.7152C25.5764 27.5337 24.7471 27.1757 23.7929 26.3288C22.9054 25.5409 22.3061 24.5677 22.1319 24.2702C21.9577 23.9727 22.1134 23.8119 22.2629 23.6638C22.3524 23.575 22.4552 23.4504 22.5581 23.3257C22.6095 23.2634 22.661 23.201 22.7107 23.1432C22.8377 22.9956 22.8927 22.8838 22.9675 22.7317C22.9807 22.705 22.9944 22.677 23.0093 22.6474C23.1088 22.4491 23.0591 22.2755 22.9844 22.1268C22.9345 22.0275 22.6516 21.342 22.395 20.7204C22.2675 20.4113 22.1464 20.1181 22.0638 19.9205C21.8498 19.4088 21.6328 19.4101 21.4587 19.4112C21.4357 19.4113 21.4134 19.4114 21.392 19.4104C21.218 19.4017 21.0188 19.3999 20.8197 19.3999C20.6207 19.3999 20.2972 19.4743 20.0235 19.7717C20.006 19.7908 19.9864 19.8116 19.9651 19.8342C19.6541 20.1645 18.9785 20.8819 18.9785 22.2508C18.9785 23.7055 20.0369 25.1112 20.1952 25.3214L20.1977 25.3247C20.2075 25.3377 20.225 25.3627 20.2502 25.3986C20.608 25.9092 22.4995 28.6089 25.2984 29.8116C26.0107 30.1178 26.5669 30.3006 27.0005 30.4376C27.7159 30.6637 28.3668 30.6318 28.8812 30.5553C29.4549 30.47 30.6478 29.8365 30.8966 29.1423C31.1455 28.4482 31.1455 27.8532 31.0708 27.7293C31.0107 27.6295 30.8701 27.5619 30.6618 27.4617C30.6113 27.4374 30.5568 27.4112 30.4986 27.3822Z" fill="#0041A4"/>
<path fill-rule="evenodd" clip-rule="evenodd" d="M50 25C50 38.8071 38.8071 50 25 50C11.1929 50 0 38.8071 0 25C0 11.1929 11.1929 0 25 0C38.8071 0 50 11.1929 50 25ZM48 25C48 37.7025 37.7025 48 25 48C12.2975 48 2 37.7025 2 25C2 12.2975 12.2975 2 25 2C37.7025 2 48 12.2975 48 25Z" fill="#0041A4"/>
</svg>
