<svg width="80" height="80" viewBox="0 0 80 80" fill="none" xmlns="http://www.w3.org/2000/svg">
<path d="M78.448 27.6183L74.4699 23.6404C73.1305 22.301 71.2232 21.8106 69.4677 22.2372C69.8946 20.481 69.4033 18.574 68.0645 17.235L59.4353 8.60573C58.6571 7.82689 57.6554 7.31004 56.5698 7.12712C56.3868 6.04146 55.8699 5.03983 55.0911 4.2616L52.3824 1.55284C50.3119 -0.517613 46.9551 -0.517613 44.8847 1.55284L17.7571 28.6806C15.6867 30.7509 15.6867 34.1077 17.7571 36.1781L23.5348 41.9558C23.8015 42.2213 24.0049 42.5436 24.1296 42.8987C24.2544 43.2538 24.2974 43.6324 24.2555 44.0064C24.2148 44.3814 24.0901 44.7423 23.8907 45.0624C23.6912 45.3825 23.4221 45.6534 23.1034 45.8551C5.88241 56.8324 4.26507 58.4498 3.57427 59.1406C-1.19134 63.9062 -1.19151 71.6606 3.57427 76.4261C8.33988 81.1919 16.0942 81.1919 20.86 76.4261C21.5508 75.7353 23.1683 74.1178 34.1454 56.8969C34.3472 56.5792 34.6181 56.3111 34.9378 56.1125C35.2576 55.9139 35.618 55.79 35.9923 55.75C36.7579 55.6659 37.5059 55.9267 38.0449 56.4657L43.8226 62.2434C45.893 64.3139 49.2498 64.3137 51.3203 62.2434L78.448 35.116C80.5183 33.0456 80.5183 29.6888 78.448 27.6183ZM47.5715 58.495L41.7938 52.7173C40.1187 51.0422 37.7689 50.2219 35.4141 50.4804C34.2515 50.6078 33.1324 50.9944 32.1392 51.6118C31.1459 52.2292 30.3039 53.0616 29.6751 54.0477C24.8096 61.6806 18.6806 71.1086 17.1114 72.6777C14.4084 75.3806 10.0261 75.3806 7.32321 72.6777C4.62028 69.9747 4.62028 65.5926 7.32321 62.8895C8.8923 61.3204 18.3203 55.1914 25.9532 50.3258C27.9519 49.0518 29.2667 46.9412 29.5252 44.5852C29.7838 42.2292 28.9594 39.883 27.2835 38.207L21.5059 32.4293L25.719 28.2162L51.7845 54.2816L47.5715 58.495ZM55.5368 50.5295L29.4712 24.464L48.6336 5.3016L51.3424 8.01018L48.3171 14.7213C48.2668 14.8329 48.2517 14.9571 48.2737 15.0775C48.2957 15.1979 48.3538 15.3087 48.4403 15.3953L48.4458 15.4006C48.5343 15.487 48.6473 15.544 48.7694 15.5639C48.8915 15.5839 49.0168 15.5658 49.1283 15.5121L55.6865 12.3545L64.3157 20.9837L52.7775 38.1795C52.6997 38.2954 52.6645 38.4349 52.6781 38.5739C52.6916 38.7129 52.7531 38.8429 52.8519 38.9417L52.8532 38.9429C52.9524 39.0416 53.0829 39.1027 53.2223 39.1156C53.3617 39.1286 53.5012 39.0926 53.6169 39.0139L70.7211 27.3889L74.6993 31.3669L55.5368 50.5295Z" fill="white"/>
<path d="M13.0497 70.072C14.7739 70.072 16.1716 68.6743 16.1716 66.9501C16.1716 65.2259 14.7739 63.8281 13.0497 63.8281C11.3255 63.8281 9.92773 65.2259 9.92773 66.9501C9.92773 68.6743 11.3255 70.072 13.0497 70.072Z" fill="white"/>
</svg>
