<svg width="50" height="50" viewBox="0 0 50 50" fill="none" xmlns="http://www.w3.org/2000/svg">
<path fill-rule="evenodd" clip-rule="evenodd" d="M34.2937 16.5471C36.3796 18.4098 37.5359 22.5283 36.7548 29.0518C36.0713 34.8073 32.1606 35.8268 30.8479 36.169C30.7191 36.2025 30.6153 36.2296 30.5421 36.2539C30.1875 36.3708 27.0675 37.1718 23.005 36.8222C22.8633 36.99 22.7287 37.1498 22.6007 37.3017C20.5328 39.7562 20.1765 40.1791 19.441 39.9427C18.7581 39.7294 18.7984 38.6687 18.7984 38.6687L18.8039 36.0504H18.7984C12.8628 34.336 12.9457 28.0159 13.0155 24.6422C13.0853 21.2695 13.7224 18.5451 15.5311 16.6889C19.5588 12.894 30.9283 13.3649 34.2948 16.546L34.2937 16.5471ZM24.8286 18.665C24.4086 18.665 24.4086 19.3145 24.8286 19.3199C28.0872 19.3448 30.7708 21.5983 30.8002 25.7319C30.8002 26.1681 31.4439 26.1627 31.4384 25.7265C31.4035 21.2725 28.4722 18.6899 24.8286 18.665ZM29.1147 25.0467C29.1049 25.4775 29.7475 25.4981 29.7529 25.0619C29.8064 22.606 28.2802 20.583 25.4122 20.3698C24.9922 20.3395 24.9486 20.9943 25.3675 21.0246C27.8547 21.2119 29.1649 22.8961 29.1147 25.0467ZM28.4275 27.8404C27.8886 27.5308 27.3398 27.7235 27.1129 28.0276L26.6384 28.637C26.3973 28.9466 25.9467 28.9054 25.9467 28.9054C22.6587 28.0428 21.7795 24.6289 21.7795 24.6289C21.7795 24.6289 21.7391 24.1668 22.0402 23.9189L22.6336 23.4318C22.9304 23.198 23.118 22.6352 22.8158 22.0821C22.2071 20.9909 21.7491 20.4388 21.4423 20.069C21.3422 19.9483 21.2582 19.8471 21.1904 19.7528C20.9002 19.3924 20.4638 19.3112 20.01 19.5548H20.0002C19.0565 20.1024 18.0234 21.1275 18.354 22.1828C18.4518 22.3757 18.5637 22.6418 18.6993 22.9638C19.3455 24.4993 20.5271 27.3071 23.2576 29.5224C24.81 30.7898 27.2667 32.0887 28.3097 32.3885L28.3195 32.4037C29.3471 32.7435 30.3464 31.6785 30.8798 30.7141V30.7065C31.1166 30.24 31.038 29.7984 30.6922 29.5094C30.0791 28.9162 29.154 28.2614 28.4275 27.8404ZM27.473 24.5056C27.4184 23.3896 26.9101 22.8463 25.8617 22.7857C25.4373 22.7608 25.4766 22.1059 25.8966 22.1308C27.2755 22.2066 28.0413 23.0184 28.1111 24.4752C28.1308 24.9114 27.4926 24.9418 27.473 24.5056Z" fill="#0041A4"/>
<path fill-rule="evenodd" clip-rule="evenodd" d="M50 25C50 38.8071 38.8071 50 25 50C11.1929 50 0 38.8071 0 25C0 11.1929 11.1929 0 25 0C38.8071 0 50 11.1929 50 25ZM48 25C48 37.7025 37.7025 48 25 48C12.2975 48 2 37.7025 2 25C2 12.2975 12.2975 2 25 2C37.7025 2 48 12.2975 48 25Z" fill="#0041A4"/>
</svg>
