<svg width="30" height="30" viewBox="0 0 30 30" fill="none" xmlns="http://www.w3.org/2000/svg">
<circle cx="15" cy="15" r="15" fill="#73A56C"/>
<path d="M17.6667 10.5556C18.1382 10.5556 18.5903 10.7429 18.9237 11.0763C19.2571 11.4097 19.4444 11.8618 19.4444 12.3333M17.6667 7C19.0812 7 20.4377 7.5619 21.4379 8.5621C22.4381 9.56229 23 10.9188 23 12.3333M8.77778 7.88889H12.3333L14.1111 12.3333L11.8889 13.6667C12.8409 15.5969 14.4031 17.1591 16.3333 18.1111L17.6667 15.8889L22.1111 17.6667V21.2222C22.1111 21.6937 21.9238 22.1459 21.5904 22.4793C21.257 22.8127 20.8048 23 20.3333 23C16.866 22.7893 13.5957 21.3169 11.1394 18.8606C8.68311 16.4043 7.21071 13.134 7 9.66667C7 9.19517 7.1873 8.74299 7.5207 8.40959C7.8541 8.07619 8.30628 7.88889 8.77778 7.88889Z" stroke="white" stroke-width="2" stroke-linecap="round" stroke-linejoin="round"/>
</svg>
