<svg width="30" height="30" viewBox="0 0 30 30" fill="none" xmlns="http://www.w3.org/2000/svg">
<circle cx="15" cy="15" r="15" fill="#73A56C"/>
<path d="M15 16.5211C16.4497 16.5211 17.625 15.3585 17.625 13.9244C17.625 12.4903 16.4497 11.3277 15 11.3277C13.5502 11.3277 12.375 12.4903 12.375 13.9244C12.375 15.3585 13.5502 16.5211 15 16.5211Z" stroke="white" stroke-width="2" stroke-linecap="round" stroke-linejoin="round"/>
<path d="M19.9499 18.8209L16.2372 22.4936C15.9091 22.8179 15.4643 23 15.0004 23C14.5366 23 14.0918 22.8179 13.7636 22.4936L10.0501 18.8209C9.0712 17.8525 8.40455 16.6186 8.13448 15.2754C7.86441 13.9322 8.00306 12.5399 8.53288 11.2746C9.0627 10.0093 9.95991 8.92785 11.111 8.16698C12.2622 7.40611 13.6155 7 15 7C16.3845 7 17.7378 7.40611 18.889 8.16698C20.0401 8.92785 20.9373 10.0093 21.4671 11.2746C21.9969 12.5399 22.1356 13.9322 21.8655 15.2754C21.5955 16.6186 20.9288 17.8525 19.9499 18.8209Z" stroke="white" stroke-width="2" stroke-linecap="round" stroke-linejoin="round"/>
</svg>
