<svg width="209" height="127" viewBox="0 0 209 127" fill="none" xmlns="http://www.w3.org/2000/svg">
<ellipse cx="115" cy="71" rx="94" ry="50" fill="#D4F8D0"/>
<ellipse cx="25.5" cy="13.5" rx="25.5" ry="13.5" fill="#D4F8D0"/>
<ellipse cx="184.5" cy="121" rx="11.5" ry="6" fill="#D4F8D0"/>
<path d="M170.447 50.6081L163.187 44.7608C161.237 43.1907 158.374 43.4994 156.803 45.4482L145.994 58.8703C144.424 60.8191 144.732 63.6829 146.682 65.2528L153.124 70.4416C154.07 71.2031 154.357 72.5411 153.808 73.625C152.805 75.6043 147.643 82.7317 143.389 88.0146C139.054 93.3964 133.3 99.8345 131.549 101.262C130.607 102.029 129.239 102.034 128.294 101.272L121.851 96.0838C121.387 95.7081 120.854 95.4282 120.282 95.2604C119.709 95.0926 119.109 95.0401 118.517 95.1061C117.924 95.1684 117.349 95.3477 116.826 95.6336C116.302 95.9194 115.841 96.3062 115.468 96.7715L104.658 110.193C103.088 112.143 103.397 115.006 105.347 116.576L112.607 122.424C114.817 124.203 117.541 125.121 120.283 125.12C122.152 125.122 123.997 124.693 125.674 123.867C131.96 120.766 144.34 110.395 154.898 97.2851C165.457 84.1752 172.951 69.8705 174.641 63.0665C175.784 58.47 174.138 53.5801 170.447 50.6081Z" fill="#176EE1"/>
<path d="M171.371 51.4336C168.87 59.86 160.268 75.9198 148.365 90.6993C135.888 106.191 121.26 118.446 113.831 122.11C113.491 122.276 113.145 122.428 112.793 122.566C114.968 124.251 117.618 125.121 120.284 125.12C122.154 125.122 123.999 124.693 125.676 123.867C131.962 120.766 144.342 110.395 154.9 97.2852C165.459 84.1753 172.953 69.8706 174.643 63.0666C175.686 58.8733 174.406 54.4368 171.371 51.4336Z" fill="#0046A2"/>
<path d="M129.163 69.2867C138.281 62.1685 143.479 52.1749 143.479 41.6632C143.479 31.5411 138.784 22.0443 130.257 14.9226C121.823 7.87916 110.63 4 98.74 4C86.8489 4 75.6557 7.87916 67.2227 14.9226C58.6962 22.0443 54 31.5411 54 41.6632C54 51.7852 58.6962 61.2823 67.2227 68.404C75.6557 75.4482 86.8489 79.3276 98.74 79.3276C101.743 79.3276 104.69 79.0844 107.568 78.602C109.798 80.2175 117.29 85.0633 129.088 86.8983C129.316 86.9338 129.542 86.951 129.766 86.951C131.11 86.951 132.376 86.3256 133.246 85.2054C134.339 83.7955 134.578 81.8936 133.869 80.2414L129.163 69.2867Z" fill="#DCF4FF"/>
<path d="M129.163 69.2867C138.281 62.1685 143.479 52.1749 143.479 41.6632C143.479 31.5411 138.784 22.0443 130.256 14.9226C121.823 7.87916 110.63 4 98.7399 4C97.3641 4 95.9981 4.05441 94.6445 4.15708C104.991 4.94247 114.607 8.69436 122.065 14.9226C130.592 22.0443 135.288 31.5411 135.288 41.6634C135.288 52.1749 130.089 62.1687 120.972 69.2869L125.678 80.2416C126.387 81.8938 126.148 83.7958 125.055 85.2057C124.842 85.4801 124.6 85.7302 124.332 85.9516C125.904 86.3339 127.491 86.6499 129.089 86.8988C129.316 86.9338 129.542 86.9513 129.767 86.9513C131.11 86.9513 132.377 86.3258 133.246 85.2057C134.34 83.7958 134.578 81.8938 133.869 80.2416L129.163 69.2867Z" fill="#B5E9FF"/>
<path d="M105.058 48.9599C104.113 48.6566 103.104 49.1669 102.801 50.1119C102.797 50.1214 102.465 51.0603 101.527 51.964C100.293 53.1523 98.5946 53.7548 96.4783 53.7548C91.4793 53.7548 90.2078 50.2607 90.1623 50.1316C89.8593 49.1863 88.8466 48.6668 87.902 48.9701C86.9576 49.2729 86.4365 50.2849 86.7395 51.2292C86.8199 51.4788 88.79 57.3486 96.4783 57.3486C104.166 57.3486 106.137 51.4798 106.216 51.2292C106.519 50.2849 106.002 49.2629 105.058 48.9599ZM78.4913 37.7231C76.2735 37.7231 74.4688 39.5269 74.4688 41.7457C74.4688 43.9634 76.2737 45.7672 78.4913 45.7672C80.7088 45.7672 82.5128 43.9634 82.5128 41.7457C82.5128 39.5267 80.709 37.7231 78.4913 37.7231ZM114.465 37.7231C112.247 37.7231 110.443 39.5269 110.443 41.7457C110.443 43.9634 112.247 45.7672 114.465 45.7672C116.683 45.7672 118.487 43.9634 118.487 41.7457C118.487 39.5267 116.682 37.7231 114.465 37.7231Z" fill="#464649"/>
</svg>
