<svg width="50" height="50" viewBox="0 0 50 50" fill="none" xmlns="http://www.w3.org/2000/svg">
<path fill-rule="evenodd" clip-rule="evenodd" d="M25 48C37.7025 48 48 37.7025 48 25C48 12.2975 37.7025 2 25 2C12.2975 2 2 12.2975 2 25C2 37.7025 12.2975 48 25 48ZM25 50C38.8071 50 50 38.8071 50 25C50 11.1929 38.8071 0 25 0C11.1929 0 0 11.1929 0 25C0 38.8071 11.1929 50 25 50Z" fill="#0041A4"/>
<path fill-rule="evenodd" clip-rule="evenodd" d="M15.3749 24.3184L26.1148 19.5735C31.2292 17.3916 32.2919 17.0126 32.9846 17.0001C33.1369 16.9974 33.4776 17.0361 33.6982 17.2197C33.8846 17.3748 33.9358 17.5843 33.9603 17.7312C33.9849 17.8782 34.0154 18.2132 33.9911 18.4749C33.7139 21.4616 32.5147 28.7098 31.9046 32.055C31.6464 33.4705 31.1385 33.9451 30.6461 33.9916C29.5766 34.0925 28.7645 33.2666 27.7287 32.5702L23.6188 29.7387C21.8005 28.5098 22.9792 27.8343 24.0155 26.7304C24.2866 26.4414 28.9987 22.0454 29.0898 21.6467C29.1009 21.5968 29.1118 21.4109 29.0042 21.3127C28.8965 21.2145 28.7375 21.2485 28.6228 21.2748C28.4603 21.3127 25.871 23.068 20.8548 26.541C20.1199 27.0587 19.4541 27.3109 18.8577 27.2977C18.2001 27.2831 16.9353 26.9164 15.995 26.6029C14.8416 26.2184 13.925 26.0151 14.0048 25.362C14.0464 25.0219 14.5031 24.674 15.3749 24.3184Z" fill="#0041A4"/>
</svg>
