<svg width="70" height="54" viewBox="0 0 70 54" fill="none" xmlns="http://www.w3.org/2000/svg">
<path d="M62.6913 30.3149L58.1282 29.2247V27.6218C60.6486 26.1329 62.3438 23.3893 62.3438 20.2558V14.206C62.3438 9.4913 58.508 5.65556 53.7932 5.65556H52.8476C50.3304 5.65556 48.0642 6.74952 46.4982 8.48636C44.9815 3.57718 40.4008 0 35.0001 0C29.5994 0 25.0188 3.57691 23.5021 8.48636C21.936 6.74952 19.6699 5.65556 17.1526 5.65556H16.207C11.4923 5.65556 7.65629 9.4913 7.65629 14.206V20.2558C7.65629 23.3892 9.35156 26.1329 11.872 27.6218V29.2247L7.30887 30.3149C3.00553 31.3431 0 35.1511 0 39.5754V43.6912C0 44.4462 0.612262 45.0583 1.36713 45.0583H12.4095C12.3396 45.6033 12.3045 46.1523 12.3046 46.7018V51.074H4.10153C3.34652 51.074 2.7344 51.6863 2.7344 52.4411C2.7344 53.1961 3.34666 53.8083 4.10153 53.8083H65.8985C66.6535 53.8083 67.2656 53.196 67.2656 52.4411C67.2656 51.6861 66.6533 51.074 65.8985 51.074H57.6954V46.7083C57.6954 46.1501 57.6595 45.5993 57.5897 45.0584H68.6329C69.3879 45.0584 70 44.4462 70 43.6913V39.5756C70.0001 35.1511 66.9945 31.343 62.6913 30.3149ZM47.0315 14.206C47.0314 10.999 49.6406 8.38983 52.8478 8.38983H53.7934C57.0006 8.38983 59.6097 10.999 59.6097 14.206V14.5566C57.6397 14.5342 55.7172 13.9485 54.0693 12.8687C53.8468 12.723 53.5866 12.6454 53.3207 12.6454C53.0548 12.6454 52.7946 12.723 52.5721 12.8687C50.9243 13.9486 49.0017 14.5343 47.0317 14.5566V14.206H47.0315ZM47.0314 19.1407V17.2913C49.245 17.27 51.4001 16.6935 53.3204 15.6119C55.2408 16.6937 57.3958 17.27 59.6095 17.2913V20.2559C59.6095 23.4631 57.0003 26.0723 53.7931 26.0723H52.8475C49.6403 26.0723 47.0311 23.4631 47.0311 20.2559V19.1407H47.0314ZM49.6536 34.8774C49.0916 34.6555 48.5148 34.4734 47.9274 34.3324L43.5822 33.2942C43.906 33.1608 44.2397 33.0527 44.5802 32.9708L48.899 31.9358L49.6536 34.8774ZM48.5217 27.6271V29.2145L43.9429 30.3118C42.9593 30.5472 42.0197 30.9382 41.1594 31.47V29.4719C43.0381 28.3468 44.5769 26.7338 45.6123 24.8043C46.3437 25.9633 47.3411 26.9311 48.5217 27.6271ZM44.2971 19.1407C44.2971 24.267 40.1266 28.4375 35.0003 28.4375C29.874 28.4375 25.7034 24.267 25.7034 19.1407V15.1357H27.206C31.0444 15.1357 34.7013 13.9109 37.7076 11.6866L38.021 12.1549C38.6337 13.0728 39.4636 13.8252 40.4371 14.3452C41.4105 14.8652 42.4973 15.1367 43.6009 15.1357H44.2973L44.2971 19.1407ZM25.7031 12.0311C25.7031 6.90497 29.8737 2.7344 35 2.7344C40.1263 2.7344 44.2969 6.90498 44.2969 12.0313V12.4013H43.6005C42.9464 12.4019 42.3023 12.241 41.7254 11.9328C41.1484 11.6246 40.6565 11.1786 40.2934 10.6346L39.7878 9.87878C40.2006 9.4606 40.5925 9.02236 40.9622 8.56566C41.437 7.97842 41.3456 7.11758 40.7583 6.64301C40.1714 6.16829 39.3103 6.25949 38.8356 6.847C35.9831 10.3767 31.7443 12.4011 27.2059 12.4011H25.7031V12.0311ZM24.3878 24.8043C25.4255 26.7382 26.969 28.3541 28.8533 29.4794V31.4776C27.9896 30.942 27.0455 30.5484 26.0571 30.3119L21.4784 29.2147V27.6273C22.6589 26.9311 23.6563 25.9633 24.3878 24.8043ZM26.4029 33.2882L22.0637 34.328C21.48 34.4685 20.9067 34.6497 20.3482 34.8701L21.1012 31.9361L25.4198 32.9711C25.7569 33.0518 26.0851 33.1584 26.4029 33.2882ZM10.3908 14.206C10.3907 10.999 12.9998 8.38983 16.207 8.38983H17.1526C20.3598 8.38983 22.969 10.999 22.969 14.206V14.5566C20.999 14.5342 19.0765 13.9485 17.4286 12.8687C17.2061 12.723 16.9459 12.6454 16.68 12.6454C16.414 12.6454 16.1539 12.723 15.9314 12.8687C14.2836 13.9486 12.361 14.5343 10.391 14.5566L10.3908 14.206ZM10.3907 20.2559V17.2913C12.6043 17.27 14.7594 16.6935 16.6797 15.6119C18.6 16.6937 20.7551 17.27 22.9687 17.2913V20.2559C22.9687 23.4631 20.3596 26.0723 17.1524 26.0723H16.2068C12.9998 26.0723 10.3907 23.4631 10.3907 20.2559ZM13.076 42.3244H2.7344V39.5756C2.7344 36.4218 4.87677 33.7072 7.9441 32.9747L12.2489 31.9462L14.2828 39.8739C13.7932 40.6448 13.3886 41.4664 13.076 42.3244ZM14.6065 28.6541C15.134 28.7551 15.6698 28.8061 16.2069 28.8065H17.1525C17.6965 28.8065 18.228 28.7534 18.744 28.6557V30.1201L17.0308 36.7971C16.8304 36.9575 16.6349 37.1239 16.4447 37.2962L14.6065 30.131V28.6541ZM15.0391 51.0741V46.7022C15.0391 43.3867 16.6491 40.401 19.2142 38.5718L31.7165 51.0741H15.0391ZM21.7691 37.2597C22.0752 37.154 22.3862 37.063 22.701 36.987L29.2305 35.4223L32.4397 47.9302L21.7691 37.2597ZM31.5876 33.6066V30.6785C32.6953 31.0065 33.8447 31.1728 35 31.1722C36.1895 31.1722 37.3388 30.9979 38.425 30.6748V33.6223L35.0085 46.9397L31.5876 33.6066ZM40.7823 35.4368L47.2921 36.992C47.6163 37.07 47.9365 37.164 48.2514 37.2736L37.5713 47.9539L40.7823 35.4368ZM54.961 51.0741H38.3179L50.8019 38.59C53.3578 40.4196 54.961 43.3993 54.961 46.7085V51.0741ZM55.3939 30.1313L53.5544 37.3014C53.3651 37.1301 53.1707 36.9646 52.9714 36.8051L51.2563 30.1204V28.656C51.7809 28.7559 52.3137 28.8064 52.8478 28.8068H53.7934C54.3405 28.8068 54.8752 28.7531 55.3939 28.6544V30.1313ZM67.2657 42.3242H56.9221C56.6094 41.4676 56.2052 40.6474 55.7163 39.8777L57.7511 31.9461L62.0559 32.9745C65.1234 33.7072 67.2656 36.4218 67.2656 39.5754V42.3242H67.2657Z" fill="url(#paint0_linear_145_42)"/>
<defs>
<linearGradient id="paint0_linear_145_42" x1="7.53846" y1="8.96804" x2="50.1745" y2="55.1249" gradientUnits="userSpaceOnUse">
<stop stop-color="#37AF27"/>
<stop offset="1" stop-color="#10A2D0"/>
</linearGradient>
</defs>
</svg>
