<svg width="80" height="74" viewBox="0 0 80 74" fill="none" xmlns="http://www.w3.org/2000/svg">
<path d="M0 16.8184L20 18.4995V21.8638L0 23.5449V16.8184ZM0 34.2664L20.342 26.551L21.75 29.5994L2.817 40.3633L0 34.2664ZM2.817 0L21.75 10.7629L20.342 13.8133L0 6.09687L2.817 0ZM63.333 3.36327C61.077 3.36327 58.916 3.82341 56.953 4.65086L43.942 10.0908H33.333V13.4541H25V26.9092H33.333V30.2725H43.932L50 32.8083V38.6821H45V43.7275H50V74H60L70 60.5449V35.5812C75.882 32.9849 80 27.0777 80 20.1816C80 10.892 72.539 3.36327 63.333 3.36327ZM63.333 58.3017L56.667 67.2725V35.5933L56.953 35.7144C58.9746 36.5641 61.143 37.001 63.333 37V58.3017ZM63.333 30.2725C62.0224 30.2741 60.7246 30.0127 59.515 29.5035L45.257 23.5449H40V16.8184H45.267L59.505 10.8668C60.7169 10.3529 62.0185 10.089 63.333 10.0908C66.276 10.0908 68.899 11.4046 70.732 13.4541H61.667V18.4995H73.164C73.255 19.0505 73.333 19.6054 73.333 20.1816C73.333 20.7578 73.255 21.3128 73.164 21.8638H61.667V26.9092H70.732C68.899 28.9586 66.276 30.2725 63.333 30.2725Z" fill="white"/>
</svg>
