<svg width="250" height="40" viewBox="0 0 250 40" fill="none" xmlns="http://www.w3.org/2000/svg">
<path d="M63.2645 3.56014V5.00869H75.6914C76.5199 5.00869 77.7626 5.00869 78.5785 5.83716C79.3944 6.66562 79.4069 7.90831 79.4069 8.72423V21.1512C79.4069 21.9796 79.4069 23.2223 78.5785 24.0382C77.75 24.8667 76.5073 24.8667 75.6914 24.8667H69.6913C68.657 24.8667 67.3089 24.8667 66.8043 23.7269C66.2871 22.5872 67.0111 21.5528 67.6327 20.7143L75.7165 9.94433H63.2896L58.3188 16.572C57.4853 17.6817 56.7648 18.6432 56.7648 19.8859C56.7648 21.1286 57.4351 22.0223 58.3188 23.1997L59.5615 24.8567C60.8042 26.5136 62.0469 28.1705 63.7038 28.999C65.3607 29.8274 67.3189 29.8274 70.0303 29.8274H75.4027C78.5157 29.8274 83.1601 29.8274 86.2731 26.7144C89.3861 23.6014 89.3862 19.0574 89.3862 17.4005V12.4297C89.3862 10.7728 89.3861 6.22879 86.2731 3.11578C83.1601 0.00276984 78.5157 0.00276984 75.4027 0.00276984L66.8168 8.30306e-06C65.9883 -0.000242746 64.954 8.31982e-06 64.1306 0.828471C63.3021 1.65693 63.3021 2.69126 63.3021 3.5147" fill="#C4151C"/>
<path d="M48.4525 9.987H60.7539L45.942 29.9203H33.6406L48.4525 9.987Z" fill="#C4151C"/>
<path d="M0 13.5017C0 12.6732 0 11.6389 0.828463 10.8155C1.65693 9.99202 2.69125 9.987 3.51469 9.987H24.3267C27.0129 9.987 28.9962 9.987 30.6531 10.8155C32.3101 11.6439 33.5402 13.3008 34.7954 14.9578L36.0381 16.6147C36.9193 17.7896 37.5921 18.6859 37.5921 19.9286C37.5921 21.1712 36.8716 22.1328 36.0381 23.2424L31.0674 29.8701H18.6404L26.7242 19.1001C27.3443 18.2716 28.0698 17.2373 27.5527 16.0875C27.0355 14.9477 25.6899 14.9477 24.6656 14.9477H14.9249V39.8016H4.98333V14.9477H0.0125525V13.4967" fill="#C4151C"/>
<path d="M101.174 26.4056C100.428 27.4198 99.6675 28.419 98.9219 29.4182V29.9856H101.023C102.052 28.6148 102.59 27.8994 102.59 27.0734H104.648V29.9856H106.617V27.0734H108.675C108.675 27.8943 109.212 28.6098 110.242 29.9856H112.343V29.4182L110.076 26.4056C111.984 24.9746 111.984 24.9746 111.984 23.0918V22.4666H109.838V23.0918C109.838 25.3738 109.838 25.3738 107.601 25.3738H106.617V22.4616H104.648V25.3738H103.664C101.427 25.3738 101.427 25.3738 101.427 23.0918V22.4666H99.2809V23.0918C99.2809 24.9696 99.2809 24.9696 101.174 26.4056Z" fill="#231F20"/>
<path fill-rule="evenodd" clip-rule="evenodd" d="M116.237 25.4014C116.237 23.747 116.237 23.747 118.069 23.747C119.902 23.747 119.902 23.747 119.902 25.4014H116.237ZM116.237 26.742H118.069C119.992 26.727 120.56 26.7571 121.208 26.6077L121.968 26.429V25.6984C121.968 24.4607 121.968 22.1335 118.428 22.1335H117.713C114.173 22.1335 114.173 24.4582 114.173 25.7235V26.439C114.173 27.7796 114.203 30.029 118.089 30.029C118.672 30.029 119.982 30.029 121.403 29.6725V28.0633H121.002L119.571 28.4198H118.049C116.217 28.4193 116.217 28.4193 116.217 26.7654L116.237 26.742Z" fill="#231F20"/>
<path d="M125.275 22.3386C125.275 23.4708 125.185 26.8826 123.397 29.2676V29.85H125.588C126.886 28.1203 126.886 25.8583 126.886 24.0006H129.974V29.85H131.942V22.3436H125.29" fill="#231F20"/>
<path fill-rule="evenodd" clip-rule="evenodd" d="M136.321 25.4014C136.321 23.747 136.321 23.747 138.156 23.747C139.989 23.747 139.989 23.747 139.989 25.4014H136.323M136.323 26.742H138.158C140.081 26.727 140.649 26.7571 141.297 26.6077L142.057 26.429V25.6984C142.057 24.4607 142.057 22.1335 138.517 22.1335H137.802C134.262 22.1335 134.262 24.4582 134.262 25.7235V26.439C134.262 27.7796 134.292 30.029 138.178 30.029C138.761 30.029 140.071 30.029 141.492 29.6725V28.0633H141.091L139.66 28.4198H138.138C136.306 28.4193 136.306 28.4193 136.306 26.7654L136.323 26.742Z" fill="#231F20"/>
<path d="M149.375 26.1546V25.9309C150.897 25.5443 150.897 24.6053 150.897 24.2463C150.897 23.5308 150.897 22.0999 147.282 22.0999C146.744 22.0999 145.492 22.0999 144.068 22.4589V24.0681H144.47L145.901 23.7091H147.555C148.702 23.7091 148.763 23.7091 148.763 24.5426C148.763 25.3635 148.763 25.3635 147.555 25.3635H145.901V26.7041H147.555C148.702 26.7041 148.763 26.7041 148.763 27.525C148.763 28.361 148.763 28.361 147.555 28.361H145.901L144.47 28.002H144.068V29.6113C145.499 29.9678 146.754 29.9678 147.282 29.9678C150.897 29.9678 150.897 28.5368 150.897 27.8213C150.897 27.4648 150.897 26.5259 149.375 26.1518" fill="#231F20"/>
<path d="M159.166 22.3386V25.1504H155.149V22.3386H153.141V29.9203H155.149V26.9077H159.166V29.9203H160.924V22.3386H159.166Z" fill="#231F20"/>
<path fill-rule="evenodd" clip-rule="evenodd" d="M167.2 26.1546C168.766 26.1546 168.766 26.1546 168.766 27.3169C168.766 28.4793 168.766 28.4793 167.2 28.4793H165.633V26.1546H167.2ZM174.229 22.3888H172.261V29.8952H174.229V22.3888ZM167.476 29.8952C169.846 29.8952 170.84 29.373 170.84 27.3345C170.84 26.2173 170.84 24.5981 167.752 24.5981C167.305 24.5981 166.545 24.6433 165.651 24.8667V22.3612H163.683V29.8676H167.473L167.476 29.8952Z" fill="#231F20"/>
<path fill-rule="evenodd" clip-rule="evenodd" d="M178.748 25.4014C178.748 23.747 178.748 23.747 180.581 23.747C182.413 23.747 182.413 23.747 182.413 25.4014H178.748ZM178.748 26.742H180.581C182.504 26.727 183.071 26.7571 183.719 26.6077L184.479 26.429V25.6984C184.479 24.4607 184.479 22.1335 180.94 22.1335H180.224C176.684 22.1335 176.684 24.4582 176.684 25.7235V26.439C176.684 27.7796 176.714 30.029 180.601 30.029C181.183 30.029 182.494 30.029 183.915 29.6725V28.0633H183.513L182.082 28.4198H180.561C178.728 28.4193 178.728 28.4193 178.728 26.7654L178.748 26.742Z" fill="#231F20"/>
<path fill-rule="evenodd" clip-rule="evenodd" d="M192.556 25.9035C192.556 23.8901 192.556 23.9353 195.217 23.9353C195.576 23.9353 196.068 23.9797 196.663 24.114V27.3275L194.755 27.8045C192.548 27.8047 192.548 27.8047 192.548 25.8965M191.386 31.0932V32.7928C192.817 33.1518 193.972 33.1518 194.424 33.1518C198.491 33.1518 198.616 31.392 198.616 29.3861V22.4069H197.973L197.019 23.1224C196.364 22.2713 194.767 22.2437 194.258 22.2437C190.467 22.2437 190.467 24.6287 190.467 25.7082V26.0672C190.467 27.3199 190.467 29.3811 193.68 29.3811C194.649 29.3811 195.797 29.1124 196.643 28.4873V29.1124C196.643 31.4221 196.598 31.4371 194.228 31.4371H193.198L191.767 31.0781H191.366L191.386 31.0932Z" fill="#231F20"/>
<path fill-rule="evenodd" clip-rule="evenodd" d="M204.606 22.1629C200.815 22.1629 200.815 24.3997 200.815 25.7529V26.4684C200.815 27.809 200.815 30.0584 204.606 30.0584H205.322C209.112 30.0584 209.112 27.8215 209.112 26.4684V25.7529C209.112 24.4123 209.112 22.1629 205.322 22.1629H204.606ZM204.963 23.8173C207.064 23.8173 207.064 23.8173 207.064 26.0993C207.064 28.3814 207.064 28.3814 204.963 28.3814C202.861 28.3814 202.861 28.3814 202.861 26.0993C202.861 23.8173 202.861 23.8173 204.963 23.8173Z" fill="#231F20"/>
<path fill-rule="evenodd" clip-rule="evenodd" d="M217.41 26.1546C217.41 28.3914 217.41 28.3914 215.218 28.3914C214.681 28.3914 213.995 28.3914 213.295 28.2124V24.4467L215.203 23.9697C217.41 23.9697 217.41 23.9993 217.41 26.1463M211.334 22.3805V32.9246H213.302V29.661C214.196 29.8847 214.912 30.0627 215.989 30.0627C219.478 30.0627 219.478 27.5019 219.478 26.4726V25.7572C219.478 24.5044 219.478 22.1671 216.215 22.1671C214.545 22.1671 213.579 22.8977 213.051 23.2994L212.336 22.3454H211.352L211.334 22.3805Z" fill="#231F20"/>
<path fill-rule="evenodd" clip-rule="evenodd" d="M225.443 22.1629C221.652 22.1629 221.652 24.3997 221.652 25.7529V26.4684C221.652 27.809 221.652 30.0584 225.443 30.0584H226.159C229.95 30.0584 229.95 27.8215 229.95 26.4684V25.7529C229.95 24.4123 229.95 22.1629 226.159 22.1629H225.443ZM225.8 23.8173C227.901 23.8173 227.901 23.8173 227.901 26.0993C227.901 28.3814 227.901 28.3814 225.8 28.3814C223.698 28.3814 223.698 28.3814 223.698 26.0993C223.698 23.8173 223.698 23.8173 225.8 23.8173Z" fill="#231F20"/>
<path d="M235.736 22.1629C235.021 22.1629 234.082 22.1629 232.648 22.5219V24.1311H233.05L234.481 23.7746H236.314C237.298 23.7746 237.298 23.7746 237.298 24.342C237.298 24.7286 237.298 24.8491 236.537 24.9822L234.747 25.429C233.718 25.6826 232.287 26.0692 232.287 27.6207C232.287 28.65 232.287 30.0358 235.902 30.0358C236.617 30.0358 237.556 30.0358 238.99 29.6793V28.0701H238.588C237.991 28.234 237.426 28.3688 237.202 28.4291H235.325C234.34 28.4291 234.34 28.4291 234.34 27.8617C234.34 27.5203 234.34 27.445 234.757 27.3244L235.756 27.0558L236.889 26.7721C237.918 26.5186 239.349 26.147 239.349 24.5805C239.349 23.5512 239.349 22.1654 235.734 22.1654" fill="#231F20"/>
<path d="M248.54 30.1713L250.001 29.0818C249.464 28.3663 249.464 28.3663 249.464 27.0985V22.4541H247.495V27.9019L245.587 28.3789C243.559 28.3789 243.559 28.3789 243.559 26.3077V22.4415H241.591V26.609C241.591 28.0851 241.591 30.1488 244.578 30.1488C246.145 30.1488 247.114 29.4182 247.641 29.0165L248.52 30.1789" fill="#231F20"/>
<path fill-rule="evenodd" clip-rule="evenodd" d="M99.4164 4.38857V14.9326H101.563V12.0205H103.263C106.175 12.0205 108.459 12.0205 108.459 8.20452C108.459 4.36347 106.177 4.36347 103.263 4.36347H99.4215M101.568 10.1376V6.24634H104.154C106.077 6.24634 106.167 6.24634 106.167 8.1995C106.167 10.0924 106.167 10.1376 104.154 10.1376H101.568Z" fill="#231F20"/>
<path fill-rule="evenodd" clip-rule="evenodd" d="M113.977 7.25053C110.186 7.25053 110.186 9.48738 110.186 10.8405V11.556C110.186 12.8966 110.186 15.146 113.977 15.146H114.693C118.484 15.146 118.484 12.9092 118.484 11.556V10.8405C118.484 9.49994 118.484 7.25053 114.693 7.25053H113.977ZM114.334 8.90495C116.435 8.90495 116.435 8.90495 116.435 11.187C116.435 13.469 116.435 13.469 114.334 13.469C112.232 13.469 112.232 13.469 112.232 11.187C112.232 8.90495 112.232 8.90495 114.334 8.90495Z" fill="#231F20"/>
<path d="M124.27 15.1335C124.808 15.1335 126.193 15.1335 127.634 14.7745V13.1653H127.233L125.787 13.5217H124.938C122.448 13.5217 122.448 13.5217 122.448 11.197C122.448 8.87231 122.448 8.87231 124.28 8.87231C125.832 8.87231 125.832 8.87231 126.203 10.3485L127.993 9.90161C127.993 9.18612 127.993 7.2656 124.629 7.2656H123.914C120.374 7.2656 120.374 9.50245 120.374 10.8556V11.5711C120.374 12.9117 120.374 15.1611 124.265 15.1611" fill="#231F20"/>
<path d="M133.81 15.1335C134.347 15.1335 135.733 15.1335 137.174 14.7745V13.1653H136.773L135.327 13.5217H134.478C131.988 13.5217 131.988 13.5217 131.988 11.197C131.988 8.87231 131.988 8.87231 133.82 8.87231C135.372 8.87231 135.372 8.87231 135.743 10.3485L137.533 9.90161C137.533 9.18612 137.533 7.2656 134.169 7.2656H133.454C129.914 7.2656 129.914 9.50245 129.914 10.8556V11.5711C129.914 12.9117 129.914 15.1611 133.805 15.1611" fill="#231F20"/>
<path d="M146.363 15.1586L147.824 14.069C147.287 13.3535 147.287 13.3535 147.287 12.0858V7.44134H145.318V12.8891L143.41 13.3661C141.382 13.3661 141.382 13.3661 141.382 11.2949V7.42878H139.414V11.5962C139.414 13.0724 139.414 15.136 142.401 15.136C143.968 15.136 144.937 14.4054 145.464 14.0038L146.343 15.1661" fill="#231F20"/>
<path fill-rule="evenodd" clip-rule="evenodd" d="M153.392 4.76515C152.423 4.76515 152.423 4.76515 151.946 4.22791L151.082 4.89821C152.021 6.10575 152.498 6.19613 153.869 6.19613H154.198C155.554 6.19613 156.046 6.10651 156.959 4.89821L156.096 4.22791C155.634 4.76515 155.634 4.76515 154.65 4.76515H153.382M157.022 15.1837L158.483 14.0941C157.946 13.3787 157.946 13.3787 157.946 12.1109V7.46644H155.978V12.9142L154.07 13.3912C152.087 13.3912 152.041 13.3912 152.041 11.32V7.45389H150.073V11.6213C150.073 13.0975 150.073 15.1611 153.061 15.1611C154.627 15.1611 155.596 14.4306 156.123 14.0289L157.002 15.1912L157.022 15.1837Z" fill="#231F20"/>
<path d="M164.187 15.1335C164.724 15.1335 166.11 15.1335 167.551 14.7745V13.1653H167.15L165.704 13.5217H164.852C162.362 13.5217 162.362 13.5217 162.362 11.197C162.362 8.87231 162.362 8.87231 164.195 8.87231C165.746 8.87231 165.746 8.87231 166.118 10.3485L167.908 9.90161C167.908 9.18612 167.908 7.2656 164.544 7.2656H163.828C160.288 7.2656 160.288 9.50245 160.288 10.8556V11.5711C160.289 12.9117 160.289 15.1611 164.18 15.1611" fill="#231F20"/>
<path d="M170.212 7.45138V14.9578H172.181V12.0456H174.596C174.596 12.8665 175.133 13.582 176.16 14.9578H178.261V14.3904L175.994 11.3778C177.902 9.94681 177.902 9.94682 177.902 8.06394V7.43883H175.756V8.06394C175.756 10.346 175.756 10.346 173.519 10.346H172.178V7.43381H170.21" fill="#231F20"/>
<path d="M187.284 15.1586L188.745 14.069C188.208 13.3535 188.208 13.3535 188.208 12.0858V7.44134H186.239V12.8891L184.331 13.3661C182.303 13.3661 182.303 13.3661 182.303 11.2949V7.42878H180.335V11.5962C180.335 13.0724 180.335 15.136 183.322 15.136C184.889 15.136 185.858 14.4054 186.385 14.0038L187.264 15.1661" fill="#231F20"/>
<path fill-rule="evenodd" clip-rule="evenodd" d="M192.556 10.5142C192.556 8.85977 192.556 8.85977 194.391 8.85977C196.224 8.85977 196.224 8.85977 196.224 10.5142H192.558M192.558 11.8548H194.393C196.316 11.8397 196.884 11.8699 197.532 11.7205L198.292 11.5417V10.8112C198.292 9.5735 198.292 7.24627 194.752 7.24627H194.037C190.497 7.24627 190.497 9.57099 190.497 10.8363V11.5518C190.497 12.8924 190.527 15.1418 194.414 15.1418C194.996 15.1418 196.306 15.1418 197.727 14.7828V13.1736H197.326L195.895 13.53H194.373C192.538 13.5298 192.538 13.5298 192.538 11.8756L192.558 11.8548Z" fill="#231F20"/>
</svg>
