<svg width="250" height="43" viewBox="0 0 250 43" fill="none" xmlns="http://www.w3.org/2000/svg">
<path fill-rule="evenodd" clip-rule="evenodd" d="M33.7079 0H25.2809V1.91011H7.02247C3.14405 1.91011 0 5.11706 0 9.07303V33.6657C0 37.6217 3.14405 40.8287 7.02247 40.8287H25.2809V42.5H33.7079V40.8287H51.9663C55.8447 40.8287 58.9888 37.6217 58.9888 33.6657V9.07303C58.9888 5.11706 55.8447 1.91011 51.9663 1.91011H33.7079V0ZM25.2809 10.7444H8.89513V31.9944H25.2809V10.7444ZM33.7079 31.9944V10.7444H50.3277V31.9944H33.7079Z" fill="#272727"/>
<path fill-rule="evenodd" clip-rule="evenodd" d="M76.3109 1.91011C72.4324 1.91011 69.2884 5.11706 69.2884 9.07303V33.6657C69.2884 37.6217 72.4324 40.8287 76.3109 40.8287H114.232C118.111 40.8287 121.255 37.6217 121.255 33.6657V9.07303C121.255 5.11706 118.111 1.91011 114.232 1.91011H76.3109ZM112.125 10.7444H78.1835V31.9944H112.125V10.7444Z" fill="#272727"/>
<path fill-rule="evenodd" clip-rule="evenodd" d="M132.022 9.07303C132.022 5.11706 135.167 1.91011 139.045 1.91011H175.562C179.44 1.91011 182.584 5.11706 182.584 9.07303V31.9944H185.627V40.8287H129.213V31.9944H132.022V9.07303ZM140.449 31.9944H174.391V10.7444H140.449V31.9944Z" fill="#272727"/>
<path fill-rule="evenodd" clip-rule="evenodd" d="M196.395 9.07303C196.395 5.11706 199.539 1.91011 203.418 1.91011H239.934C243.813 1.91011 246.957 5.11706 246.957 9.07303V31.9944H250V40.8287H193.586V31.9944H196.395V9.07303ZM204.822 31.9944H238.764V10.7444H204.822V31.9944Z" fill="#272727"/>
</svg>
