<svg width="100" height="37" viewBox="0 0 100 37" fill="none" xmlns="http://www.w3.org/2000/svg">
<path fill-rule="evenodd" clip-rule="evenodd" d="M0 19.1885C0 18.5759 0.496574 18.0794 1.10911 18.0794H19.5943C20.2069 18.0794 20.7035 18.5759 20.7035 19.1885V21.7394C20.7035 22.352 20.2069 22.8486 19.5943 22.8486H14.5965C14.4653 22.8486 14.338 22.8633 14.216 22.8911L14.2151 22.8855H9.72323L12.9027 24.3903C12.8911 24.5167 12.8934 24.6466 12.9114 24.7783L13.9176 32.1778C14.2119 34.3421 12.5294 36.2688 10.3453 36.2688C8.15921 36.2688 6.47618 34.3388 6.77368 32.173L7.78911 24.7806C7.92945 23.759 7.13553 22.8486 6.10429 22.8486H1.10911C0.496574 22.8486 0 22.352 0 21.7394V19.1885ZM10.3517 34.1245C11.1889 34.1245 11.8675 33.4459 11.8675 32.6088C11.8675 31.7716 11.1889 31.093 10.3517 31.093C9.51455 31.093 8.83594 31.7716 8.83594 32.6088C8.83594 33.4459 9.51455 34.1245 10.3517 34.1245Z" fill="#272727"/>
<path d="M0 7.4819C0 6.86194 0.310783 6.28327 0.827575 5.94087L9.33078 0.307501C9.94967 -0.102496 10.7538 -0.102505 11.3727 0.307501L13.4203 1.66403V3.49455L14.1597 5.41701V1.40572C14.1597 0.895264 14.5735 0.481459 15.0839 0.481459H17.3022C17.8126 0.481459 18.2264 0.895264 18.2264 1.40572V4.84811L19.8759 5.94087C20.3927 6.28326 20.7035 6.86194 20.7035 7.4819V14.0126C20.7035 15.0336 19.8758 15.8612 18.8549 15.8612H1.84852C0.827647 15.8612 0 15.0336 0 14.0126V7.4819Z" fill="url(#paint0_linear_169_712)"/>
<path d="M32.9988 2.36816C28.6378 2.36816 26.9785 3.89983 26.9785 7.98429V11.6433C26.9785 15.7277 28.6378 17.2594 32.9988 17.2594H42.6143C42.976 17.2594 43.1674 17.0679 43.1674 16.7063V14.2173C43.1674 13.8557 42.976 13.6642 42.6143 13.6642H33.1477C31.297 13.6642 30.8502 13.1749 30.8502 11.2604V8.3672C30.8502 6.45262 31.297 5.96333 33.1477 5.96333H42.6143C42.976 5.96333 43.1674 5.77187 43.1674 5.41023V2.92127C43.1674 2.55962 42.976 2.36816 42.6143 2.36816H32.9988Z" fill="#272727"/>
<path d="M45.9211 2.36816C45.5595 2.36816 45.368 2.55962 45.368 2.92127V14.7066C45.368 16.7276 46.0913 17.2594 47.5592 17.2594H49.729C51.4947 17.2594 51.9414 17.0041 52.5796 15.7915L57.5576 6.19734C57.6001 6.09097 57.7065 6.04843 57.8128 6.04843H57.983C58.0894 6.04843 58.1319 6.11224 58.1319 6.26116V16.7063C58.1319 17.0892 58.3234 17.2594 58.685 17.2594H61.4506C61.8122 17.2594 62.0037 17.0892 62.0037 16.7063V4.92095C62.0037 2.92127 61.3016 2.36816 59.8338 2.36816H57.6001C55.8344 2.36816 55.3877 2.62344 54.7708 3.83601L49.8141 13.4302C49.7716 13.5366 49.6865 13.5791 49.5588 13.5791H49.3887C49.2823 13.5791 49.2397 13.5153 49.2397 13.3664V2.92127C49.2397 2.55962 49.0483 2.36816 48.6866 2.36816H45.9211Z" fill="#272727"/>
<path d="M64.3683 2.36816C63.9854 2.36816 63.8152 2.55962 63.8152 2.92127V5.41023C63.8152 5.77187 63.9854 5.96333 64.3683 5.96333H70.7503V16.7063C70.7503 17.0679 70.9417 17.2594 71.3246 17.2594H74.0689C74.4305 17.2594 74.622 17.0679 74.622 16.7063V5.96333H81.0252C81.3869 5.96333 81.5783 5.77187 81.5783 5.41023V2.92127C81.5783 2.55962 81.3869 2.36816 81.0252 2.36816H64.3683Z" fill="#272727"/>
<path d="M83.9179 2.36816C83.5562 2.36816 83.3648 2.55962 83.3648 2.92127V14.7066C83.3648 16.7276 84.088 17.2594 85.5559 17.2594H87.7258C89.4914 17.2594 89.9382 17.0041 90.5764 15.7915L95.5543 6.19734C95.5968 6.09097 95.7032 6.04843 95.8096 6.04843H95.9798C96.0861 6.04843 96.1287 6.11224 96.1287 6.26116V16.7063C96.1287 17.0892 96.3201 17.2594 96.6818 17.2594H99.4473C99.8089 17.2594 100 17.0892 100 16.7063V4.92095C100 2.92127 99.2984 2.36816 97.8305 2.36816H95.5968C93.8312 2.36816 93.3844 2.62344 92.7675 3.83601L87.8109 13.4302C87.7683 13.5366 87.6832 13.5791 87.5556 13.5791H87.3854C87.279 13.5791 87.2365 13.5153 87.2365 13.3664V2.92127C87.2365 2.55962 87.045 2.36816 86.6834 2.36816H83.9179Z" fill="#272727"/>
<path d="M29.2547 19.8951C27.7231 19.8951 27.1274 20.4908 27.1274 21.831V34.2333C27.1274 34.5949 27.3189 34.7864 27.6805 34.7864H30.446C30.829 34.7864 31.0204 34.5949 31.0204 34.2333V23.8519C31.0204 23.5967 31.1268 23.4903 31.3821 23.4903H39.5297C39.785 23.4903 39.8913 23.5967 39.8913 23.8519V34.2333C39.8913 34.5949 40.0828 34.7864 40.4657 34.7864H43.2312C43.5929 34.7864 43.7843 34.5949 43.7843 34.2333V21.831C43.7843 20.4908 43.1887 19.8951 41.657 19.8951H29.2547Z" fill="#272727"/>
<path d="M47.1488 19.8951C46.7234 19.8951 46.5106 20.1079 46.5106 20.5333V34.2333C46.5106 34.5949 46.7021 34.7864 47.0637 34.7864H49.8292C50.1909 34.7864 50.3823 34.5949 50.3823 34.2333V30.4254H58.6576C61.9975 30.4254 63.3164 28.8937 63.3164 26.0218V24.2987C63.3164 21.4268 61.9975 19.8951 58.6576 19.8951H47.1488ZM50.3823 23.6179C50.3823 23.4478 50.4674 23.3627 50.6376 23.3627H57.8918C59.0618 23.3627 59.4447 23.8307 59.4447 24.8305V25.6176C59.4447 26.6387 59.0618 27.1067 57.8918 27.1067H50.3823V23.6179Z" fill="#272727"/>
<path d="M71.1618 19.8951C66.8008 19.8951 65.1414 21.4268 65.1414 25.5112V29.1702C65.1414 33.2547 66.8008 34.7864 71.1618 34.7864H77.799C82.16 34.7864 83.8193 33.2547 83.8193 29.1702V25.5112C83.8193 21.4268 82.16 19.8951 77.799 19.8951H71.1618ZM69.0132 25.8091C69.0132 23.8732 69.4599 23.4052 71.3107 23.4052H77.6501C79.5008 23.4052 79.9476 23.8732 79.9476 25.8091V28.8724C79.9476 30.8083 79.5008 31.2976 77.6501 31.2976H71.3107C69.4599 31.2976 69.0132 30.8083 69.0132 28.8724V25.8091Z" fill="#272727"/>
<defs>
<linearGradient id="paint0_linear_169_712" x1="0.743495" y1="15.499" x2="17.9582" y2="0.629107" gradientUnits="userSpaceOnUse">
<stop stop-color="#A1FF95"/>
<stop offset="1" stop-color="#00A3FF"/>
</linearGradient>
</defs>
</svg>
