<svg width="230" height="105" viewBox="0 0 230 105" fill="none" xmlns="http://www.w3.org/2000/svg">
<path fill-rule="evenodd" clip-rule="evenodd" d="M71.856 23.1818V20.9091L97.2259 13.4848L111.202 17.4242V20.303L141.585 13.0303V2.87879L111.202 11.8182V9.09091L141.585 0L159.207 7.27273V72.5758H180.703C182.088 72.5758 183.21 73.695 183.21 75.0758C183.21 76.4565 182.088 77.5758 180.703 77.5758H57.0443C55.6599 77.5758 54.5377 76.4565 54.5377 75.0758C54.5377 73.695 55.6599 72.5758 57.0443 72.5758H96.9221V65.6061L72.0079 66.6667V62.8788L96.9221 61.6667V53.1818L72.0079 55.7576V51.8182L96.9221 48.9394V40.7576L72.0079 44.8485V40.7576L96.9221 36.6667V28.3333L72.0079 33.7879L71.856 30L96.9221 24.0909V15.9091L71.856 23.1818ZM111.202 25V33.7879L141.585 28.3333V18.4848L111.202 25ZM111.202 38.3333V47.1212L141.585 43.6364V33.4848L111.202 38.3333ZM111.202 60.6061V51.8182L141.585 48.7879V58.7879L111.202 60.6061ZM111.202 65V72.4242H141.585V63.9394L111.202 65Z" fill="#272727"/>
<path d="M12.2459 85.303C10.9141 85.303 9.86559 85.7814 8.81711 87.7792L0.117568 104.24C-0.10913 104.69 -0.0241185 105 0.51429 105H4.93491C5.33163 105 5.52999 104.887 5.67168 104.606L7.37191 101.314H19.6703L21.3989 104.606C21.5689 104.887 21.7389 105 22.1356 105H26.4429C27.0096 105 27.0947 104.69 26.8396 104.24L17.9984 87.7792C16.9216 85.7814 15.9298 85.303 14.2295 85.303H12.2459ZM13.0677 90.2273C13.1811 90.0866 13.2661 90.0303 13.4078 90.0303H13.5494C13.6911 90.0303 13.7761 90.0866 13.8611 90.2273L17.6583 97.4589H9.35552L13.0677 90.2273Z" fill="#272727"/>
<path d="M35.8077 85.303C29.9986 85.303 27.7883 87.329 27.7883 92.7316V97.5714C27.7883 102.974 29.9986 105 35.8077 105H48.6162C49.0979 105 49.3529 104.747 49.3529 104.268V100.976C49.3529 100.498 49.0979 100.245 48.6162 100.245H36.0061C33.5407 100.245 32.9456 99.5974 32.9456 97.0649V93.2381C32.9456 90.7056 33.5407 90.0584 36.0061 90.0584H48.6162C49.0979 90.0584 49.3529 89.8052 49.3529 89.3268V86.0346C49.3529 85.5563 49.0979 85.303 48.6162 85.303H35.8077Z" fill="#272727"/>
<path d="M53.0211 85.303C52.5393 85.303 52.2843 85.5563 52.2843 86.0346V104.268C52.2843 104.747 52.5393 105 53.0211 105H56.7049C57.1866 105 57.4417 104.747 57.4417 104.268V96.9524H59.652C61.0405 96.9524 61.5222 97.1494 62.1457 97.9935L67.1614 104.606C67.3597 104.887 67.5014 105 68.0682 105H72.4038C73.0555 105 72.9988 104.381 72.8288 104.156L67.133 96.8961C66.4529 96.0238 65.8295 95.3485 65.0928 94.8701C65.5745 94.4481 66.0279 93.8571 66.5946 93.1255L72.0637 86.0628C72.2621 85.7814 72.2054 85.303 71.667 85.303H67.4164C66.8497 85.303 66.708 85.4156 66.4813 85.697L61.7489 92.0844C61.0972 92.9848 60.6155 93.1255 59.2553 93.1255H57.4417V86.0346C57.4417 85.5563 57.1866 85.303 56.7049 85.303H53.0211Z" fill="#272727"/>
<path d="M84.2355 85.303C83.7254 85.303 83.4987 85.5563 83.4987 86.0346V89.3268C83.4987 89.8052 83.7254 90.0584 84.2355 90.0584H92.7366V104.268C92.7366 104.747 92.9917 105 93.5017 105H97.1573C97.639 105 97.894 104.747 97.894 104.268V90.0584H106.424C106.905 90.0584 107.16 89.8052 107.16 89.3268V86.0346C107.16 85.5563 106.905 85.303 106.424 85.303H84.2355Z" fill="#272727"/>
<path d="M111.297 85.303C110.078 85.303 109.54 85.9784 109.54 86.8225V103.481C109.54 104.606 110.078 105 111.297 105H130.056C130.538 105 130.793 104.747 130.793 104.268V101.117C130.793 100.61 130.538 100.385 130.056 100.385H114.952C114.697 100.385 114.556 100.216 114.556 99.9351V97.0931H129.886C130.396 97.0931 130.623 96.868 130.623 96.3615V93.7727C130.623 93.2662 130.396 93.0411 129.886 93.0411H114.556V90.3398C114.556 90.0584 114.697 89.9459 114.952 89.9459H130.056C130.538 89.9459 130.793 89.6926 130.793 89.1861V86.0346C130.793 85.5563 130.538 85.303 130.056 85.303H111.297Z" fill="#272727"/>
<path d="M142.08 85.303C140.096 85.303 139.558 86.3723 139.359 87.9199C138.679 93.4632 138.311 96.3333 137.716 98.1905C137.149 99.9351 136.441 100.245 135.789 100.245H133.494C132.984 100.245 132.757 100.498 132.757 100.976V104.268C132.757 104.747 132.984 105 133.494 105H136.696C139.359 105 140.521 103.79 141.315 101.483C142.392 98.3312 142.987 93.0693 143.213 90.9026C143.27 90.4805 143.355 90.0584 144.007 90.0584H149.788C150.156 90.0584 150.298 90.1991 150.298 90.5368V104.268C150.298 104.747 150.524 105 151.034 105H154.718C155.2 105 155.455 104.747 155.455 104.268V87.8636C155.455 86.0909 154.69 85.303 152.621 85.303H142.08Z" fill="#272727"/>
<path d="M167.179 85.303C165.196 85.303 164.657 86.3723 164.459 87.9199C163.779 93.4632 163.41 96.3333 162.815 98.1905C162.249 99.9351 161.54 100.245 160.888 100.245H158.593C158.083 100.245 157.856 100.498 157.856 100.976V104.268C157.856 104.747 158.083 105 158.593 105H161.795C164.459 105 165.621 103.79 166.414 101.483C167.491 98.3312 168.086 93.0693 168.313 90.9026C168.37 90.4805 168.455 90.0584 169.106 90.0584H174.887C175.255 90.0584 175.397 90.1991 175.397 90.5368V104.268C175.397 104.747 175.624 105 176.134 105H179.818C180.3 105 180.555 104.747 180.555 104.268V87.8636C180.555 86.0909 179.789 85.303 177.721 85.303H167.179Z" fill="#272727"/>
<path d="M183.154 85.303C182.531 85.303 182.531 85.7814 182.758 86.1472L191.627 99.5974C191.259 100.048 190.749 100.245 189.587 100.245H186.753C186.243 100.245 185.988 100.498 185.988 100.976V104.268C185.988 104.747 186.243 105 186.753 105H189.644C191.74 105 193.781 104.55 195.254 102.186L205.427 86.1753C205.626 85.8377 205.654 85.303 205.031 85.303H201.318C200.355 85.303 200.185 85.5844 199.93 86.0065L194.234 95.3485L188.255 85.7814C188.028 85.4156 187.745 85.303 187.207 85.303H183.154Z" fill="#272727"/>
<path d="M208.464 85.303C207.897 85.303 207.614 85.5844 207.614 86.1472V104.268C207.614 104.747 207.869 105 208.35 105H212.034C212.516 105 212.771 104.747 212.771 104.268V99.2316H223.794C228.243 99.2316 230 97.2056 230 93.4069V91.1277C230 87.329 228.243 85.303 223.794 85.303H208.464ZM212.771 90.2273C212.771 90.0022 212.884 89.8896 213.111 89.8896H222.774C224.333 89.8896 224.843 90.5087 224.843 91.8312V92.8723C224.843 94.2229 224.333 94.842 222.774 94.842H212.771V90.2273Z" fill="#272727"/>
</svg>
