<svg width="100" height="28" viewBox="0 0 100 28" fill="none" xmlns="http://www.w3.org/2000/svg">
<path fill-rule="evenodd" clip-rule="evenodd" d="M13.0172 0.257437C12.4227 -0.0858126 11.6902 -0.0858124 11.0957 0.257438L0.96077 6.10881C0.366243 6.45206 0 7.08642 0 7.77292V19.4757C0 20.1622 0.366244 20.7965 0.96077 21.1398L11.0957 26.9911C11.6902 27.3344 12.4227 27.3344 13.0172 26.9911L23.1521 21.1398C23.7466 20.7965 24.1128 20.1622 24.1128 19.4757V7.77292C24.1128 7.08642 23.7466 6.45206 23.1521 6.10881L13.0172 0.257437ZM3.61535 8.88306L3.52658 17.8217C3.52551 17.9297 3.58116 18.0303 3.67319 18.0868L6.6883 19.9373C6.89315 20.0631 7.15657 19.9157 7.15657 19.6753V15.8866C7.15657 15.5968 7.52086 15.4679 7.70309 15.6933L11.1545 19.9619C11.3367 20.1873 11.701 20.0585 11.701 19.7686V13.7808C11.701 13.6771 11.6488 13.5804 11.5621 13.5236L4.09127 8.62895C3.88795 8.49574 3.61776 8.64001 3.61535 8.88306ZM20.4976 8.88306L20.5864 17.8217C20.5875 17.9297 20.5318 18.0303 20.4398 18.0868L17.4247 19.9373C17.2198 20.0631 16.9564 19.9157 16.9564 19.6753V15.8866C16.9564 15.5968 16.5921 15.4679 16.4099 15.6933L12.9585 19.9619C12.7763 20.1873 12.412 20.0585 12.412 19.7686V13.7808C12.412 13.6771 12.4642 13.5804 12.5509 13.5236L20.0217 8.62895C20.225 8.49574 20.4952 8.64001 20.4976 8.88306Z" fill="#272727"/>
<path d="M31.8956 18.2384H29.8851V9.34781H31.9081L34.6223 13.0946L37.1857 9.34781H39.0832V18.2384H37.0727V12.5738L34.6223 16.0412H34.3333L31.8956 12.6119V18.2384Z" fill="#272727"/>
<path d="M42.8668 18.2384H40.8438L44.5004 9.34781H46.2973L49.9539 18.2384H47.8052L47.0764 16.3714H43.5956L42.8668 18.2384ZM46.3224 14.4662L45.3423 11.9515L44.3496 14.4662H46.3224Z" fill="#272727"/>
<path d="M56.5711 9.34781H58.9335L56.1188 13.7042L59.0466 18.2384H56.6842L54.7994 15.2537L52.9396 18.2384H50.5773L53.5051 13.7042L50.7155 9.34781H53.0779L54.8622 12.2055L56.5711 9.34781Z" fill="#272727"/>
<path d="M59.7213 13.7931C59.7213 12.4807 60.1527 11.3884 61.0156 10.5163C61.8868 9.6357 63.0135 9.1954 64.3958 9.1954C65.7696 9.1954 66.888 9.61453 67.7508 10.4528C68.6304 11.291 69.0702 12.4045 69.0702 13.7931C69.0702 15.1309 68.6262 16.2317 67.7383 17.0953C66.8587 17.959 65.7445 18.3908 64.3958 18.3908C63.0303 18.3908 61.9078 17.9717 61.0282 17.1334C60.1569 16.2952 59.7213 15.1817 59.7213 13.7931ZM61.8575 13.7931C61.8575 14.5467 62.1046 15.186 62.5989 15.7109C63.0847 16.2274 63.6837 16.4857 64.3958 16.4857C65.2 16.4857 65.8241 16.2359 66.2681 15.7363C66.7121 15.2198 66.9341 14.5721 66.9341 13.7931C66.9341 12.9887 66.6911 12.341 66.2052 11.8499C65.711 11.3503 65.1078 11.1005 64.3958 11.1005C63.6586 11.1005 63.0512 11.3503 62.5737 11.8499C62.0962 12.3494 61.8575 12.9972 61.8575 13.7931Z" fill="#272727"/>
<path d="M77.4166 15.8379L78.1831 17.362C77.9151 17.6669 77.5171 17.9166 76.9894 18.1114C76.47 18.2977 75.9129 18.3908 75.3181 18.3908C73.9527 18.3908 72.8427 17.9717 71.9882 17.1334C71.1338 16.2782 70.7065 15.1648 70.7065 13.7931C70.7065 12.4553 71.1086 11.3545 71.9128 10.4909C72.717 9.62723 73.848 9.1954 75.3056 9.1954C75.8585 9.1954 76.3737 9.28007 76.8512 9.44942C77.3287 9.61876 77.7098 9.84314 77.9947 10.1226L77.1025 11.6467C76.5161 11.2826 75.9171 11.1005 75.3056 11.1005C74.5935 11.1005 74.0029 11.3376 73.5338 11.8118C73.0731 12.2775 72.8427 12.9379 72.8427 13.7931C72.8427 14.5721 73.0898 15.2198 73.5841 15.7363C74.0783 16.2359 74.7192 16.4857 75.5066 16.4857C76.2103 16.4857 76.847 16.2698 77.4166 15.8379Z" fill="#272727"/>
<path d="M79.1884 13.7931C79.1884 12.4807 79.6198 11.3884 80.4827 10.5163C81.3539 9.6357 82.4806 9.1954 83.8628 9.1954C85.2367 9.1954 86.355 9.61453 87.2179 10.4528C88.0975 11.291 88.5373 12.4045 88.5373 13.7931C88.5373 15.1309 88.0933 16.2317 87.2053 17.0953C86.3257 17.959 85.2116 18.3908 83.8628 18.3908C82.4974 18.3908 81.3748 17.9717 80.4952 17.1334C79.624 16.2952 79.1884 15.1817 79.1884 13.7931ZM81.3246 13.7931C81.3246 14.5467 81.5717 15.186 82.0659 15.7109C82.5518 16.2274 83.1508 16.4857 83.8628 16.4857C84.6671 16.4857 85.2912 16.2359 85.7351 15.7363C86.1791 15.2198 86.4011 14.5721 86.4011 13.7931C86.4011 12.9887 86.1582 12.341 85.6723 11.8499C85.1781 11.3503 84.5749 11.1005 83.8628 11.1005C83.1257 11.1005 82.5183 11.3503 82.0408 11.8499C81.5633 12.3494 81.3246 12.9972 81.3246 13.7931Z" fill="#272727"/>
<path d="M92.8124 18.2384H90.8019V9.34781H92.825L95.5392 13.0946L98.1026 9.34781H100V18.2384H97.9895V12.5738L95.5392 16.0412H95.2501L92.8124 12.6119V18.2384Z" fill="#272727"/>
</svg>
