<svg xmlns="http://www.w3.org/2000/svg">
  <defs>
		<style>
			.sprite {
        display: none;
      }

      .sprite:target {
        display: inline;
      }
		</style>
	</defs>

  <svg class="sprite" id="icon-left-arrow" viewBox="0 0 56 49" fill="none">
    <path d="M3 24.4286H53M3 24.4286L24.4286 45.8571M3 24.4286L24.4286 3" stroke="#4BAA3F" stroke-width="6" stroke-linecap="round" stroke-linejoin="round"/>
  </svg>

  <svg class="sprite" id="icon-phone" viewBox="0 0 30 30" >
    <circle class="whatsapp-link__icon" cx="15" cy="15" r="15" />
    <path d="M17.6667 10.5556C18.1382 10.5556 18.5903 10.7429 18.9237 11.0763C19.2571 11.4097 19.4444 11.8618 19.4444 12.3333M17.6667 7C19.0812 7 20.4377 7.5619 21.4379 8.5621C22.4381 9.56229 23 10.9188 23 12.3333M8.77778 7.88889H12.3333L14.1111 12.3333L11.8889 13.6667C12.8409 15.5969 14.4031 17.1591 16.3333 18.1111L17.6667 15.8889L22.1111 17.6667V21.2222C22.1111 21.6937 21.9238 22.1459 21.5904 22.4793C21.257 22.8127 20.8048 23 20.3333 23C16.866 22.7893 13.5957 21.3169 11.1394 18.8606C8.68311 16.4043 7.21071 13.134 7 9.66667C7 9.19517 7.1873 8.74299 7.5207 8.40959C7.8541 8.07619 8.30628 7.88889 8.77778 7.88889Z" stroke="white" stroke-width="2" stroke-linecap="round" stroke-linejoin="round"/>
  </svg>
<!--  -->
  <svg class="sprite" id="icon-social-vkontakte" width="50" height="50" viewBox="0 0 50 50" fill="none" xmlns="http://www.w3.org/2000/svg">
    <path fill-rule="evenodd" clip-rule="evenodd" d="M25 48C37.7025 48 48 37.7025 48 25C48 12.2975 37.7025 2 25 2C12.2975 2 2 12.2975 2 25C2 37.7025 12.2975 48 25 48ZM25 50C38.8071 50 50 38.8071 50 25C50 11.1929 38.8071 0 25 0C11.1929 0 0 11.1929 0 25C0 38.8071 11.1929 50 25 50Z" fill="#0041A4"/>
    <path d="M34.9566 29.9194C34.434 29.2864 33.8402 28.7191 33.2659 28.1704C33.0618 27.9753 32.8506 27.7736 32.6471 27.573C32.0628 26.9965 32.0415 26.7799 32.5041 26.125C32.8242 25.6736 33.1636 25.2216 33.4917 24.7845C33.7894 24.3879 34.0973 23.9778 34.3923 23.5663L34.4529 23.4817C35.0168 22.6943 35.6 21.8801 35.9103 20.8979C35.9909 20.6388 36.0755 20.2575 35.882 19.9386C35.6887 19.62 35.3136 19.5228 35.0482 19.4774C34.9169 19.4549 34.7866 19.4519 34.6656 19.4519L30.9728 19.4492L30.9423 19.4489C30.3839 19.4489 30.0076 19.7145 29.792 20.2608C29.5862 20.7828 29.36 21.3386 29.102 21.8672C28.5885 22.9196 27.9363 24.1318 26.9927 25.1428L26.9528 25.1858C26.8413 25.3067 26.7151 25.4435 26.6228 25.4435C26.6087 25.4435 26.5933 25.4408 26.5758 25.4353C26.3804 25.3584 26.2492 24.8809 26.2551 24.6587C26.2552 24.6557 26.2552 24.6526 26.2552 24.6495L26.2527 20.3423C26.2527 20.3273 26.2516 20.3125 26.2497 20.2977C26.1557 19.5975 25.9477 19.1617 25.1614 19.0063C25.1405 19.0021 25.1192 19 25.0979 19H21.258C20.6325 19 20.2877 19.2566 19.9637 19.6407C19.8763 19.7433 19.6942 19.9571 19.7844 20.2163C19.876 20.4795 20.1732 20.5357 20.27 20.554C20.7504 20.6463 21.0212 20.9428 21.0979 21.4609C21.2318 22.3606 21.2482 23.321 21.1496 24.4831C21.1222 24.8061 21.0678 25.0556 20.9782 25.2687C20.9574 25.3185 20.8836 25.4808 20.8084 25.4809C20.7845 25.4809 20.7153 25.4714 20.5893 25.3838C20.2914 25.1779 20.0735 24.884 19.8194 24.521C18.9551 23.2883 18.2297 21.9303 17.6014 20.3685C17.3684 19.7936 16.9333 19.4717 16.3756 19.4623C15.7628 19.4529 15.2073 19.4483 14.6774 19.4483C14.0984 19.4483 13.5617 19.4537 13.0376 19.4647C12.5889 19.4727 12.2785 19.6085 12.1152 19.8685C11.9516 20.1287 11.9623 20.4705 12.1469 20.8842C13.6244 24.199 14.964 26.6092 16.4907 28.6993C17.5604 30.1618 18.6334 31.1742 19.867 31.8849C21.1667 32.6352 22.6232 33 24.3196 33C24.5119 33 24.7108 32.9953 24.9113 32.9858C25.897 32.9373 26.2628 32.5773 26.309 31.6087C26.331 31.1137 26.3846 30.5946 26.6258 30.1518C26.778 29.8729 26.9199 29.8729 26.9665 29.8729C27.0564 29.8729 27.1677 29.9146 27.2874 29.9928C27.5019 30.1342 27.6859 30.3235 27.8367 30.4889C27.9787 30.646 28.1191 30.8048 28.2596 30.9636C28.5628 31.3063 28.8763 31.6606 29.2039 31.9967C29.9208 32.7327 30.7105 33.0565 31.6176 32.9862H35.0034C35.0106 32.9862 35.0178 32.9859 35.025 32.9855C35.3624 32.963 35.6546 32.7741 35.8267 32.4673C36.0399 32.0873 36.0356 31.6024 35.8152 31.17C35.5651 30.6811 35.2408 30.2634 34.9566 29.9194Z" fill="#0041A4"/>
  </svg>


  <svg class="sprite" id="icon-social-telegram" width="50" height="50" viewBox="0 0 50 50" fill="none" xmlns="http://www.w3.org/2000/svg">
    <path fill-rule="evenodd" clip-rule="evenodd" d="M34.2937 16.5471C36.3796 18.4098 37.5359 22.5283 36.7548 29.0518C36.0713 34.8073 32.1606 35.8268 30.8479 36.169C30.7191 36.2025 30.6153 36.2296 30.5421 36.2539C30.1875 36.3708 27.0675 37.1718 23.005 36.8222C22.8633 36.99 22.7287 37.1498 22.6007 37.3017C20.5328 39.7562 20.1765 40.1791 19.441 39.9427C18.7581 39.7294 18.7984 38.6687 18.7984 38.6687L18.8039 36.0504H18.7984C12.8628 34.336 12.9457 28.0159 13.0155 24.6422C13.0853 21.2695 13.7224 18.5451 15.5311 16.6889C19.5588 12.894 30.9283 13.3649 34.2948 16.546L34.2937 16.5471ZM24.8286 18.665C24.4086 18.665 24.4086 19.3145 24.8286 19.3199C28.0872 19.3448 30.7708 21.5983 30.8002 25.7319C30.8002 26.1681 31.4439 26.1627 31.4384 25.7265C31.4035 21.2725 28.4722 18.6899 24.8286 18.665ZM29.1147 25.0467C29.1049 25.4775 29.7475 25.4981 29.7529 25.0619C29.8064 22.606 28.2802 20.583 25.4122 20.3698C24.9922 20.3395 24.9486 20.9943 25.3675 21.0246C27.8547 21.2119 29.1649 22.8961 29.1147 25.0467ZM28.4275 27.8404C27.8886 27.5308 27.3398 27.7235 27.1129 28.0276L26.6384 28.637C26.3973 28.9466 25.9467 28.9054 25.9467 28.9054C22.6587 28.0428 21.7795 24.6289 21.7795 24.6289C21.7795 24.6289 21.7391 24.1668 22.0402 23.9189L22.6336 23.4318C22.9304 23.198 23.118 22.6352 22.8158 22.0821C22.2071 20.9909 21.7491 20.4388 21.4423 20.069C21.3422 19.9483 21.2582 19.8471 21.1904 19.7528C20.9002 19.3924 20.4638 19.3112 20.01 19.5548H20.0002C19.0565 20.1024 18.0234 21.1275 18.354 22.1828C18.4518 22.3757 18.5637 22.6418 18.6993 22.9638C19.3455 24.4993 20.5271 27.3071 23.2576 29.5224C24.81 30.7898 27.2667 32.0887 28.3097 32.3885L28.3195 32.4037C29.3471 32.7435 30.3464 31.6785 30.8798 30.7141V30.7065C31.1166 30.24 31.038 29.7984 30.6922 29.5094C30.0791 28.9162 29.154 28.2614 28.4275 27.8404ZM27.473 24.5056C27.4184 23.3896 26.9101 22.8463 25.8617 22.7857C25.4373 22.7608 25.4766 22.1059 25.8966 22.1308C27.2755 22.2066 28.0413 23.0184 28.1111 24.4752C28.1308 24.9114 27.4926 24.9418 27.473 24.5056Z" fill="#0041A4"/>
    <path fill-rule="evenodd" clip-rule="evenodd" d="M50 25C50 38.8071 38.8071 50 25 50C11.1929 50 0 38.8071 0 25C0 11.1929 11.1929 0 25 0C38.8071 0 50 11.1929 50 25ZM48 25C48 37.7025 37.7025 48 25 48C12.2975 48 2 37.7025 2 25C2 12.2975 12.2975 2 25 2C37.7025 2 48 12.2975 48 25Z" fill="#0041A4"/>
  </svg>


  <svg class="sprite" id="icon-social-whatsapp" width="50" height="50" viewBox="0 0 50 50" fill="none" xmlns="http://www.w3.org/2000/svg">
    <path fill-rule="evenodd" clip-rule="evenodd" d="M25 48C37.7025 48 48 37.7025 48 25C48 12.2975 37.7025 2 25 2C12.2975 2 2 12.2975 2 25C2 37.7025 12.2975 48 25 48ZM25 50C38.8071 50 50 38.8071 50 25C50 11.1929 38.8071 0 25 0C11.1929 0 0 11.1929 0 25C0 38.8071 11.1929 50 25 50Z" fill="#0041A4"/>
    <path fill-rule="evenodd" clip-rule="evenodd" d="M15.3749 24.3184L26.1148 19.5735C31.2292 17.3916 32.2919 17.0126 32.9846 17.0001C33.1369 16.9974 33.4776 17.0361 33.6982 17.2197C33.8846 17.3748 33.9358 17.5843 33.9603 17.7312C33.9849 17.8782 34.0154 18.2132 33.9911 18.4749C33.7139 21.4616 32.5147 28.7098 31.9046 32.055C31.6464 33.4705 31.1385 33.9451 30.6461 33.9916C29.5766 34.0925 28.7645 33.2666 27.7287 32.5702L23.6188 29.7387C21.8005 28.5098 22.9792 27.8343 24.0155 26.7304C24.2866 26.4414 28.9987 22.0454 29.0898 21.6467C29.1009 21.5968 29.1118 21.4109 29.0042 21.3127C28.8965 21.2145 28.7375 21.2485 28.6228 21.2748C28.4603 21.3127 25.871 23.068 20.8548 26.541C20.1199 27.0587 19.4541 27.3109 18.8577 27.2977C18.2001 27.2831 16.9353 26.9164 15.995 26.6029C14.8416 26.2184 13.925 26.0151 14.0048 25.362C14.0464 25.0219 14.5031 24.674 15.3749 24.3184Z" fill="#0041A4"/>
  </svg>


  <svg class="sprite" id="icon-social-viber" width="50" height="50" viewBox="0 0 50 50" fill="none" xmlns="http://www.w3.org/2000/svg">
    <path fill-rule="evenodd" clip-rule="evenodd" d="M25.0501 13C28.2467 13.0013 31.2472 14.2398 33.5033 16.4877C35.7595 18.7356 37.0013 21.7236 37 24.9013C36.9973 31.4585 31.6362 36.7938 25.0502 36.7938H25.0453C23.0453 36.793 21.0802 36.2937 19.3348 35.3463L13 37L14.6953 30.8373C13.6496 29.0338 13.0993 26.9878 13.1002 24.8918C13.1028 18.3346 18.4635 13 25.0501 13ZM30.4986 27.3822C30.1999 27.2335 28.732 26.5146 28.4583 26.4154C28.1846 26.3162 27.9856 26.2667 27.7865 26.5642C27.5874 26.8616 27.0152 27.531 26.841 27.7293C26.6669 27.9276 26.4927 27.9524 26.1941 27.8036C26.1453 27.7793 26.0788 27.7506 25.9967 27.7152C25.5764 27.5337 24.7471 27.1757 23.7929 26.3288C22.9054 25.5409 22.3061 24.5677 22.1319 24.2702C21.9577 23.9727 22.1134 23.8119 22.2629 23.6638C22.3524 23.575 22.4552 23.4504 22.5581 23.3257C22.6095 23.2634 22.661 23.201 22.7107 23.1432C22.8377 22.9956 22.8927 22.8838 22.9675 22.7317C22.9807 22.705 22.9944 22.677 23.0093 22.6474C23.1088 22.4491 23.0591 22.2755 22.9844 22.1268C22.9345 22.0275 22.6516 21.342 22.395 20.7204C22.2675 20.4113 22.1464 20.1181 22.0638 19.9205C21.8498 19.4088 21.6328 19.4101 21.4587 19.4112C21.4357 19.4113 21.4134 19.4114 21.392 19.4104C21.218 19.4017 21.0188 19.3999 20.8197 19.3999C20.6207 19.3999 20.2972 19.4743 20.0235 19.7717C20.006 19.7908 19.9864 19.8116 19.9651 19.8342C19.6541 20.1645 18.9785 20.8819 18.9785 22.2508C18.9785 23.7055 20.0369 25.1112 20.1952 25.3214L20.1977 25.3247C20.2075 25.3377 20.225 25.3627 20.2502 25.3986C20.608 25.9092 22.4995 28.6089 25.2984 29.8116C26.0107 30.1178 26.5669 30.3006 27.0005 30.4376C27.7159 30.6637 28.3668 30.6318 28.8812 30.5553C29.4549 30.47 30.6478 29.8365 30.8966 29.1423C31.1455 28.4482 31.1455 27.8532 31.0708 27.7293C31.0107 27.6295 30.8701 27.5619 30.6618 27.4617C30.6113 27.4374 30.5568 27.4112 30.4986 27.3822Z" fill="#0041A4"/>
    <path fill-rule="evenodd" clip-rule="evenodd" d="M50 25C50 38.8071 38.8071 50 25 50C11.1929 50 0 38.8071 0 25C0 11.1929 11.1929 0 25 0C38.8071 0 50 11.1929 50 25ZM48 25C48 37.7025 37.7025 48 25 48C12.2975 48 2 37.7025 2 25C2 12.2975 12.2975 2 25 2C37.7025 2 48 12.2975 48 25Z" fill="#0041A4"/>
  </svg>
<!--  -->

  <svg class="sprite" id="icon-right-arrow" viewBox="0 0 56 49" fill="none">
    <path d="M53 24.4286L3 24.4286M53 24.4286L31.5714 3.00004M53 24.4286L31.5714 45.8572" stroke="#4BAA3F" stroke-width="6" stroke-linecap="round" stroke-linejoin="round"/>
  </svg>

  <svg class="sprite" id="icon-vkontakte" viewBox="0 0 50 50" fill="none">
    <path fill-rule="evenodd" clip-rule="evenodd" d="M25 48C37.7025 48 48 37.7025 48 25C48 12.2975 37.7025 2 25 2C12.2975 2 2 12.2975 2 25C2 37.7025 12.2975 48 25 48ZM25 50C38.8071 50 50 38.8071 50 25C50 11.1929 38.8071 0 25 0C11.1929 0 0 11.1929 0 25C0 38.8071 11.1929 50 25 50Z" fill="#0041A4"/>
    <path d="M34.9566 29.9194C34.434 29.2864 33.8402 28.7191 33.2659 28.1704C33.0618 27.9753 32.8506 27.7736 32.6471 27.573C32.0628 26.9965 32.0415 26.7799 32.5041 26.125C32.8242 25.6736 33.1636 25.2216 33.4917 24.7845C33.7894 24.3879 34.0973 23.9778 34.3923 23.5663L34.4529 23.4817C35.0168 22.6943 35.5999 21.8801 35.9103 20.8979C35.9909 20.6388 36.0755 20.2575 35.882 19.9386C35.6887 19.62 35.3136 19.5228 35.0482 19.4774C34.9169 19.4549 34.7866 19.4519 34.6656 19.4519L30.9728 19.4492L30.9423 19.4489C30.3839 19.4489 30.0076 19.7145 29.792 20.2608C29.5862 20.7828 29.36 21.3386 29.102 21.8672C28.5885 22.9196 27.9363 24.1318 26.9927 25.1428L26.9528 25.1858C26.8413 25.3067 26.7151 25.4435 26.6228 25.4435C26.6087 25.4435 26.5933 25.4408 26.5758 25.4353C26.3804 25.3584 26.2492 24.8809 26.2551 24.6587C26.2552 24.6557 26.2552 24.6526 26.2552 24.6495L26.2527 20.3423C26.2527 20.3273 26.2516 20.3125 26.2497 20.2977C26.1557 19.5975 25.9477 19.1617 25.1614 19.0063C25.1405 19.0021 25.1192 19 25.0979 19H21.258C20.6325 19 20.2877 19.2566 19.9637 19.6407C19.8763 19.7433 19.6942 19.9571 19.7844 20.2163C19.876 20.4795 20.1732 20.5357 20.27 20.554C20.7504 20.6463 21.0212 20.9428 21.0979 21.4609C21.2318 22.3606 21.2482 23.321 21.1496 24.4831C21.1222 24.8061 21.0678 25.0556 20.9782 25.2687C20.9574 25.3185 20.8836 25.4808 20.8084 25.4809C20.7845 25.4809 20.7153 25.4714 20.5893 25.3838C20.2914 25.1779 20.0735 24.884 19.8194 24.521C18.9551 23.2883 18.2297 21.9303 17.6014 20.3685C17.3684 19.7936 16.9333 19.4717 16.3756 19.4623C15.7628 19.4529 15.2073 19.4483 14.6774 19.4483C14.0984 19.4483 13.5617 19.4537 13.0376 19.4647C12.5889 19.4727 12.2785 19.6085 12.1152 19.8685C11.9516 20.1287 11.9623 20.4705 12.1469 20.8842C13.6244 24.199 14.964 26.6092 16.4907 28.6993C17.5604 30.1618 18.6334 31.1742 19.867 31.8849C21.1667 32.6352 22.6232 33 24.3196 33C24.5119 33 24.7108 32.9953 24.9113 32.9858C25.897 32.9373 26.2628 32.5773 26.309 31.6087C26.331 31.1137 26.3846 30.5946 26.6258 30.1518C26.778 29.8729 26.9199 29.8729 26.9665 29.8729C27.0564 29.8729 27.1677 29.9146 27.2874 29.9928C27.5019 30.1342 27.6859 30.3235 27.8367 30.4889C27.9787 30.646 28.1191 30.8048 28.2596 30.9636C28.5628 31.3063 28.8763 31.6606 29.2039 31.9967C29.9208 32.7327 30.7105 33.0565 31.6176 32.9862H35.0034C35.0106 32.9862 35.0178 32.9859 35.025 32.9855C35.3624 32.963 35.6546 32.7741 35.8267 32.4673C36.0399 32.0873 36.0356 31.6024 35.8152 31.17C35.5651 30.6811 35.2408 30.2634 34.9566 29.9194Z" fill="#0041A4"/>
  </svg>

  <svg class="sprite" id="icon-telegram" viewBox="0 0 50 50" fill="none">
    <path fill-rule="evenodd" clip-rule="evenodd" d="M25 48C37.7025 48 48 37.7025 48 25C48 12.2975 37.7025 2 25 2C12.2975 2 2 12.2975 2 25C2 37.7025 12.2975 48 25 48ZM25 50C38.8071 50 50 38.8071 50 25C50 11.1929 38.8071 0 25 0C11.1929 0 0 11.1929 0 25C0 38.8071 11.1929 50 25 50Z" fill="#0041A4"/>
    <path fill-rule="evenodd" clip-rule="evenodd" d="M15.3749 24.3184L26.1148 19.5735C31.2292 17.3916 32.2919 17.0126 32.9846 17.0001C33.1369 16.9974 33.4776 17.0361 33.6982 17.2197C33.8846 17.3748 33.9358 17.5843 33.9603 17.7312C33.9849 17.8782 34.0154 18.2132 33.9911 18.4749C33.7139 21.4616 32.5147 28.7098 31.9046 32.055C31.6464 33.4705 31.1385 33.9451 30.6461 33.9916C29.5766 34.0925 28.7645 33.2666 27.7287 32.5702L23.6188 29.7387C21.8005 28.5098 22.9792 27.8343 24.0155 26.7304C24.2866 26.4414 28.9987 22.0454 29.0898 21.6467C29.1009 21.5968 29.1118 21.4109 29.0042 21.3127C28.8965 21.2145 28.7375 21.2485 28.6228 21.2748C28.4603 21.3127 25.871 23.068 20.8548 26.541C20.1199 27.0587 19.4541 27.3109 18.8577 27.2977C18.2001 27.2831 16.9353 26.9164 15.995 26.6029C14.8416 26.2184 13.925 26.0151 14.0048 25.362C14.0464 25.0219 14.5031 24.674 15.3749 24.3184Z" fill="#0041A4"/>
  </svg>

  <svg class="sprite" id="icon-whatsapp" viewBox="0 0 50 50" fill="none">
    <path fill-rule="evenodd" clip-rule="evenodd" d="M25.0501 13C28.2467 13.0013 31.2472 14.2398 33.5033 16.4877C35.7595 18.7356 37.0013 21.7236 37 24.9013C36.9973 31.4585 31.6362 36.7938 25.0502 36.7938H25.0453C23.0453 36.793 21.0802 36.2937 19.3348 35.3463L13 37L14.6953 30.8373C13.6496 29.0338 13.0993 26.9878 13.1002 24.8918C13.1028 18.3346 18.4635 13 25.0501 13ZM30.4986 27.3822C30.1999 27.2335 28.732 26.5146 28.4583 26.4154C28.1846 26.3162 27.9856 26.2667 27.7865 26.5642C27.5874 26.8616 27.0152 27.531 26.841 27.7293C26.6669 27.9276 26.4927 27.9524 26.1941 27.8036C26.1453 27.7793 26.0788 27.7506 25.9967 27.7152C25.5764 27.5337 24.7471 27.1757 23.7929 26.3288C22.9054 25.5409 22.3061 24.5677 22.1319 24.2702C21.9577 23.9727 22.1134 23.8119 22.2629 23.6638C22.3524 23.575 22.4552 23.4504 22.5581 23.3257C22.6095 23.2634 22.661 23.201 22.7107 23.1432C22.8377 22.9956 22.8927 22.8838 22.9675 22.7317C22.9807 22.705 22.9944 22.677 23.0093 22.6474C23.1088 22.4491 23.0591 22.2755 22.9844 22.1268C22.9345 22.0275 22.6516 21.342 22.395 20.7204C22.2675 20.4113 22.1464 20.1181 22.0638 19.9205C21.8498 19.4088 21.6328 19.4101 21.4587 19.4112C21.4357 19.4113 21.4134 19.4114 21.392 19.4104C21.218 19.4017 21.0188 19.3999 20.8197 19.3999C20.6207 19.3999 20.2972 19.4743 20.0235 19.7717C20.006 19.7908 19.9864 19.8116 19.9651 19.8342C19.6541 20.1645 18.9785 20.8819 18.9785 22.2508C18.9785 23.7055 20.0369 25.1112 20.1952 25.3214L20.1977 25.3247C20.2075 25.3377 20.225 25.3627 20.2502 25.3986C20.608 25.9092 22.4995 28.6089 25.2984 29.8116C26.0107 30.1178 26.5669 30.3006 27.0005 30.4376C27.7159 30.6637 28.3668 30.6318 28.8812 30.5553C29.4549 30.47 30.6478 29.8365 30.8966 29.1423C31.1455 28.4482 31.1455 27.8532 31.0708 27.7293C31.0107 27.6295 30.8701 27.5619 30.6618 27.4617C30.6113 27.4374 30.5568 27.4112 30.4986 27.3822Z" fill="#0041A4"/>
    <path fill-rule="evenodd" clip-rule="evenodd" d="M50 25C50 38.8071 38.8071 50 25 50C11.1929 50 0 38.8071 0 25C0 11.1929 11.1929 0 25 0C38.8071 0 50 11.1929 50 25ZM48 25C48 37.7025 37.7025 48 25 48C12.2975 48 2 37.7025 2 25C2 12.2975 12.2975 2 25 2C37.7025 2 48 12.2975 48 25Z" fill="#0041A4"/>
  </svg>

  <svg class="sprite" id="icon-viber" viewBox="0 0 50 50" fill="none">
    <path fill-rule="evenodd" clip-rule="evenodd" d="M34.2937 16.5471C36.3796 18.4098 37.5359 22.5283 36.7548 29.0518C36.0713 34.8073 32.1606 35.8268 30.8479 36.169C30.7191 36.2025 30.6153 36.2296 30.5421 36.2539C30.1875 36.3708 27.0675 37.1718 23.005 36.8222C22.8633 36.99 22.7287 37.1498 22.6007 37.3017C20.5328 39.7562 20.1765 40.1791 19.441 39.9427C18.7581 39.7294 18.7984 38.6687 18.7984 38.6687L18.8039 36.0504H18.7984C12.8628 34.336 12.9457 28.0159 13.0155 24.6422C13.0853 21.2695 13.7224 18.5451 15.5311 16.6889C19.5588 12.894 30.9283 13.3649 34.2948 16.546L34.2937 16.5471ZM24.8286 18.665C24.4086 18.665 24.4086 19.3145 24.8286 19.3199C28.0872 19.3448 30.7708 21.5983 30.8002 25.7319C30.8002 26.1681 31.4439 26.1627 31.4384 25.7265C31.4035 21.2725 28.4722 18.6899 24.8286 18.665ZM29.1147 25.0467C29.1049 25.4775 29.7475 25.4981 29.7529 25.0619C29.8064 22.606 28.2802 20.583 25.4122 20.3698C24.9922 20.3395 24.9486 20.9943 25.3675 21.0246C27.8547 21.2119 29.1649 22.8961 29.1147 25.0467ZM28.4275 27.8404C27.8886 27.5308 27.3398 27.7235 27.1129 28.0276L26.6384 28.637C26.3973 28.9466 25.9467 28.9054 25.9467 28.9054C22.6587 28.0428 21.7795 24.6289 21.7795 24.6289C21.7795 24.6289 21.7391 24.1668 22.0402 23.9189L22.6336 23.4318C22.9304 23.198 23.118 22.6352 22.8158 22.0821C22.2071 20.9909 21.7491 20.4388 21.4423 20.069C21.3422 19.9483 21.2582 19.8471 21.1904 19.7528C20.9002 19.3924 20.4638 19.3112 20.01 19.5548H20.0002C19.0565 20.1024 18.0234 21.1275 18.354 22.1828C18.4518 22.3757 18.5637 22.6418 18.6993 22.9638C19.3455 24.4993 20.5271 27.3071 23.2576 29.5224C24.81 30.7898 27.2667 32.0887 28.3097 32.3885L28.3195 32.4037C29.3471 32.7435 30.3464 31.6785 30.8798 30.7141V30.7065C31.1166 30.24 31.038 29.7984 30.6922 29.5094C30.0791 28.9162 29.154 28.2614 28.4275 27.8404ZM27.473 24.5056C27.4184 23.3896 26.9101 22.8463 25.8617 22.7857C25.4373 22.7608 25.4766 22.1059 25.8966 22.1308C27.2755 22.2066 28.0413 23.0184 28.1111 24.4752C28.1308 24.9114 27.4926 24.9418 27.473 24.5056Z" fill="#0041A4"/>
    <path fill-rule="evenodd" clip-rule="evenodd" d="M50 25C50 38.8071 38.8071 50 25 50C11.1929 50 0 38.8071 0 25C0 11.1929 11.1929 0 25 0C38.8071 0 50 11.1929 50 25ZM48 25C48 37.7025 37.7025 48 25 48C12.2975 48 2 37.7025 2 25C2 12.2975 12.2975 2 25 2C37.7025 2 48 12.2975 48 25Z" fill="#0041A4"/>
  </svg>

  <svg class="sprite" id="icon-cross-in-circle" viewBox="0 0 60 60" fill="none">
    <path d="M20 20L40.0208 40M40.0208 20L20 40M58 30C58 45.464 45.464 58 30 58C14.536 58 2 45.464 2 30C2 14.536 14.536 2 30 2C45.464 2 58 14.536 58 30Z" stroke="#465067" stroke-width="3" stroke-linecap="round" stroke-linejoin="round"/>
  </svg>
</svg>
